<svg width="1305" height="559" viewBox="0 0 1305 559" fill="none" xmlns="http://www.w3.org/2000/svg">
<rect x="6.5" y="7.5" width="1290" height="543" stroke="#74C208"/>
<line x1="652.5" y1="7.00092" x2="651.5" y2="551.001" stroke="#74C208"/>
<line x1="142.5" y1="7.00092" x2="141.5" y2="551.001" stroke="#74C208"/>
<line x1="565.5" y1="86" x2="565.5" y2="439" stroke="#74C208"/>
<line x1="975.5" y1="7.00092" x2="974.5" y2="551.001" stroke="#74C208"/>
<line x1="1297" y1="279.5" x2="653" y2="279.5" stroke="#74C208"/>
<line x1="651" y1="439.5" x2="7" y2="439.5" stroke="#74C208"/>
<path d="M658.32 432.5V446.32H644.5V432.5H658.32Z" fill="#74C208" stroke="#74C208"/>
<path d="M658.32 272.5V286.32H644.5V272.5H658.32Z" fill="#74C208" stroke="#74C208"/>
<path d="M981.32 272.5V286.32H967.5V272.5H981.32Z" fill="#74C208" stroke="#74C208"/>
<path d="M1304.32 272.5V286.32H1290.5V272.5H1304.32Z" fill="#74C208" stroke="#74C208"/>
<path d="M981.32 0.5V14.3203H967.5V0.5H981.32Z" fill="#74C208" stroke="#74C208"/>
<path d="M981.32 544.5V558.32H967.5V544.5H981.32Z" fill="#74C208" stroke="#74C208"/>
<path d="M572.32 432.5V446.32H558.5V432.5H572.32Z" fill="#74C208" stroke="#74C208"/>
<path d="M572.32 79.5V93.3203H558.5V79.5H572.32Z" fill="#74C208" stroke="#74C208"/>
<path d="M14.3203 432.5V446.32H0.5V432.5H14.3203Z" fill="#74C208" stroke="#74C208"/>
<path d="M149.5 432.5V446.5H135.5V432.5H149.5Z" fill="#74C208" stroke="#74C208"/>
<path d="M149.5 543.5V557.5H135.5V543.5H149.5Z" fill="#74C208" stroke="#74C208"/>
<line x1="651" y1="86.5" x2="7" y2="86.5" stroke="#74C208"/>
<path d="M659.32 79.5V93.3203H645.5V79.5H659.32Z" fill="#74C208" stroke="#74C208"/>
<path d="M659.32 0.5V14.3203H645.5V0.5H659.32Z" fill="#74C208" stroke="#74C208"/>
<path d="M14.3203 79.5V93.3203H0.5V79.5H14.3203Z" fill="#74C208" stroke="#74C208"/>
<path d="M149.32 79.5V93.3203H135.5V79.5H149.32Z" fill="#74C208" stroke="#74C208"/>
<path d="M149.32 0.5V14.3203H135.5V0.5H149.32Z" fill="#74C208" stroke="#74C208"/>
<path d="M70.5491 27C94.0305 27 113.098 35.1956 113.098 45.2947C113.098 55.3938 94.0305 63.5893 70.5491 63.5893M70.5491 27C47.0677 27 28 35.1956 28 45.2947C28 55.3938 47.0677 63.5893 70.5491 63.5893M70.5491 27C85.5107 27 97.6628 35.1956 97.6628 45.2947C97.6628 55.3938 85.519 63.5893 70.5491 63.5893M70.5491 27C55.5875 27 43.4437 35.1956 43.4437 45.2947C43.4437 55.3938 55.5792 63.5893 70.5491 63.5893M70.5491 27C78.0964 27 84.214 35.1956 84.214 45.2947C84.214 55.3938 78.0881 63.5893 70.5491 63.5893M70.5491 27C63.0101 27 56.8841 35.1956 56.8841 45.2947C56.8841 55.3938 63.0101 63.5893 70.5491 63.5893M70.5491 27V63.5893M113.098 45.2864H28" stroke="#74C208" stroke-miterlimit="10"/>
</svg>
