<svg width="50" height="50" viewBox="0 0 50 50" fill="none" xmlns="http://www.w3.org/2000/svg">
<path d="M43.75 0C42.5994 0 41.6667 0.932739 41.6667 2.08333V4.16667H39.5833C38.4327 4.16667 37.5 5.09942 37.5 6.25C37.5 7.40058 38.4327 8.33333 39.5833 8.33333H41.6667V10.4167C41.6667 11.5672 42.5994 12.5 43.75 12.5C44.9006 12.5 45.8333 11.5672 45.8333 10.4167V8.33333H47.9167C49.0673 8.33333 50 7.40058 50 6.25C50 5.09942 49.0673 4.16667 47.9167 4.16667H45.8333V2.08333C45.8333 0.932739 44.9006 0 43.75 0Z" fill="white"/>
<path d="M46.806 17.9518C46.452 16.857 45.2116 16.3703 44.1533 16.8221C43.0952 17.2739 42.6093 18.4987 42.9408 19.6005C43.9854 23.0708 44.005 26.7858 42.9731 30.291C41.7443 34.4651 39.1008 38.0816 35.4964 40.5193C31.892 42.9572 27.5514 44.0643 23.2197 43.651C18.8881 43.2374 14.8354 41.3293 11.7572 38.2537C8.67908 35.1781 6.76744 31.1268 6.35041 26.7956C5.93339 22.4641 7.03702 18.1227 9.47185 14.5163C11.9067 10.9099 15.5209 8.26341 19.6941 7.03114C23.1985 5.99639 26.9135 6.01297 30.3845 7.05457C31.4866 7.38526 32.711 6.8983 33.162 5.83974C33.6129 4.7812 33.1252 3.54116 32.0302 3.18818C27.6583 1.779 22.9462 1.71153 18.5101 3.02138C13.4056 4.52866 8.98491 7.76566 6.00675 12.1768C3.02858 16.588 1.67869 21.8983 2.18877 27.1962C2.69883 32.4941 5.03706 37.4493 8.80212 41.2112C12.5672 44.9731 17.5243 47.3072 22.8227 47.8128C28.121 48.3187 33.43 46.9643 37.8387 43.9826C42.2475 41.0008 45.4808 36.5774 46.9839 31.4716C48.29 27.0345 48.2187 22.3224 46.806 17.9518Z" fill="white"/>
<path d="M20.8333 18.7499H26.4462C26.7467 18.7499 26.9483 19.0583 26.8279 19.3336L21.2502 32.0826C20.5623 33.6551 21.7144 35.4166 23.4306 35.4166C24.3827 35.4166 25.2431 34.8493 25.6181 33.9741L30.4077 22.7985C30.9635 21.5018 31.25 20.1059 31.25 18.6951V16.6666C31.25 15.516 30.3173 14.5833 29.1667 14.5833H20.8333C19.6827 14.5833 18.75 15.516 18.75 16.6666C18.75 17.8172 19.6827 18.7499 20.8333 18.7499Z" fill="white"/>
</svg>
