<svg width="62" height="62" viewBox="0 0 62 62" fill="none" xmlns="http://www.w3.org/2000/svg">
<path d="M46.0916 27.7989L45.9772 27.3982L45.7864 27.1693L45.5575 26.9022C45.3972 26.7349 45.2047 26.6017 44.9916 26.5107C44.7785 26.4197 44.5491 26.3728 44.3174 26.3728C44.0857 26.3728 43.8564 26.4197 43.6432 26.5107C43.4301 26.6017 43.2376 26.7349 43.0774 26.9022L42.8484 27.1693L42.6958 27.4745C42.6876 27.5889 42.6876 27.7036 42.6958 27.8179C42.6785 27.9318 42.6785 28.0475 42.6958 28.1613C42.6897 28.3893 42.7286 28.6162 42.8103 28.8291C42.8993 29.0427 43.0289 29.237 43.1918 29.4014C43.3515 29.57 43.5471 29.7004 43.7642 29.7829C43.9829 29.8694 44.2158 29.9147 44.451 29.9165H44.7944L45.1378 29.802L45.443 29.6494C45.5128 29.5443 45.5643 29.4282 45.5956 29.306C45.7642 29.1463 45.8946 28.9507 45.9772 28.7337C46.0653 28.5221 46.1107 28.2952 46.1107 28.066C46.1095 27.9766 46.1031 27.8875 46.0916 27.7989Z" fill="#74C208"/>
<path d="M49.6018 20.7592L49.4874 20.4158L49.3347 20.1106L49.1058 19.7672C48.9455 19.5999 48.753 19.4667 48.5399 19.3757C48.3268 19.2847 48.0975 19.2378 47.8658 19.2378C47.634 19.2378 47.4047 19.2847 47.1916 19.3757C46.9785 19.4667 46.786 19.5999 46.6257 19.7672L46.3968 20.0343L46.2442 20.3395C46.236 20.4539 46.236 20.5686 46.2442 20.6829C46.2269 20.7967 46.2269 20.9125 46.2442 21.0263C46.2381 21.2543 46.277 21.4812 46.3586 21.6941C46.4477 21.9077 46.5772 22.102 46.7402 22.2664C46.8999 22.435 47.0955 22.5654 47.3125 22.6479C47.5312 22.7344 47.7641 22.7797 47.9993 22.7815H48.3427L48.6861 22.667L48.9913 22.5144C49.0918 22.4525 49.1819 22.3753 49.2584 22.2855C49.427 22.1258 49.5574 21.9302 49.64 21.7131C49.6635 21.509 49.6506 21.3023 49.6018 21.1026C49.6103 20.9883 49.6103 20.8736 49.6018 20.7592Z" fill="#74C208"/>
<path d="M40.8071 11.9454L40.6927 11.602L40.5401 11.2967L40.3111 11.0297C40.1508 10.8623 39.9584 10.7291 39.7452 10.6381C39.5321 10.5471 39.3028 10.5002 39.0711 10.5002C38.8394 10.5002 38.61 10.5471 38.3969 10.6381C38.1838 10.7291 37.9913 10.8623 37.831 11.0297L37.6021 11.2967L37.4495 11.602C37.4413 11.7163 37.4413 11.8311 37.4495 11.9454C37.4322 12.0592 37.4322 12.175 37.4495 12.2888C37.4434 12.5167 37.4823 12.7436 37.5639 12.9565C37.653 13.1701 37.7826 13.3645 37.9455 13.5288C38.1052 13.6974 38.3008 13.8278 38.5178 13.9104C38.7366 13.9969 38.9694 14.0421 39.2046 14.0439H39.548L39.8914 13.9295L40.0631 13.7578C40.1636 13.6959 40.2537 13.6187 40.3302 13.5288C40.4988 13.3691 40.6292 13.1735 40.7118 12.9565C40.7999 12.7449 40.8453 12.518 40.8453 12.2888C40.8411 12.1735 40.8284 12.0587 40.8071 11.9454Z" fill="#74C208"/>
<path d="M33.7483 18.9851L33.6339 18.6417L33.4813 18.3364L33.2523 18.0693C33.092 17.902 32.8996 17.7688 32.6864 17.6778C32.4733 17.5868 32.244 17.5399 32.0123 17.5399C31.7805 17.5399 31.5512 17.5868 31.3381 17.6778C31.125 17.7688 30.9325 17.902 30.7722 18.0693L30.5242 18.3555L30.3716 18.6607C30.3634 18.7751 30.3634 18.8898 30.3716 19.0041C30.3543 19.118 30.3543 19.2337 30.3716 19.3475C30.3655 19.5755 30.4044 19.8024 30.4861 20.0153C30.5751 20.2289 30.7047 20.4232 30.8676 20.5876C31.0273 20.7562 31.2229 20.8866 31.4399 20.9691C31.6587 21.0556 31.8915 21.1009 32.1267 21.1027H32.4701L32.8135 20.9882L33.1188 20.8356C33.2193 20.7738 33.3094 20.6965 33.3859 20.6067C33.5544 20.447 33.6848 20.2514 33.7674 20.0343C33.8556 19.8228 33.901 19.5958 33.901 19.3666C33.8614 19.2352 33.8104 19.1075 33.7483 18.9851Z" fill="#74C208"/>
<path d="M23.1795 11.9454L23.065 11.602L22.8933 11.3158L22.6644 11.0487C22.5041 10.8813 22.3116 10.7482 22.0985 10.6572C21.8854 10.5662 21.6561 10.5193 21.4243 10.5193C21.1926 10.5193 20.9633 10.5662 20.7502 10.6572C20.5371 10.7482 20.3446 10.8813 20.1843 11.0487L19.9554 11.3158L19.8027 11.621C19.7946 11.7354 19.7946 11.8501 19.8027 11.9644C19.7855 12.0782 19.7855 12.194 19.8027 12.3078C19.7967 12.5358 19.8356 12.7627 19.9172 12.9755C20.0063 13.1892 20.1358 13.3835 20.2988 13.5479C20.4585 13.7164 20.6541 13.8469 20.8711 13.9294C21.0898 14.0159 21.3227 14.0612 21.5579 14.063H21.9013L22.2447 13.9485L22.5499 13.7959C22.6504 13.734 22.7405 13.6568 22.817 13.567C22.9856 13.4073 23.116 13.2116 23.1986 12.9946C23.2867 12.783 23.3321 12.5561 23.3321 12.3269C23.2926 12.1955 23.2415 12.0678 23.1795 11.9454Z" fill="#74C208"/>
<path d="M33.424 47.2772C33.4908 46.9857 33.4821 46.682 33.3986 46.3949C33.3152 46.1078 33.1597 45.8467 32.9471 45.6365L15.5292 28.1995C15.3178 27.9849 15.0547 27.8284 14.7653 27.7448C14.4759 27.6613 14.1699 27.6537 13.8767 27.7227C13.5835 27.7917 13.313 27.935 13.0912 28.1388C12.8694 28.3426 12.7038 28.6 12.6103 28.8863L3.81546 55.0418C3.70796 55.353 3.69013 55.6881 3.76402 56.0089C3.8379 56.3297 4.00052 56.6233 4.23331 56.856C4.46609 57.0888 4.75965 57.2515 5.08046 57.3253C5.40127 57.3992 5.73639 57.3814 6.04755 57.2739L32.184 48.5554C32.4859 48.4723 32.7601 48.31 32.9781 48.0853C33.1962 47.8605 33.3501 47.5815 33.424 47.2772ZM19.2493 49.185L11.9998 41.9164L12.9537 39.0547L22.13 48.2311L19.2493 49.185ZM10.7407 45.6556L15.5101 50.425L8.35595 52.8097L10.7407 45.6556ZM25.8502 46.991L14.1937 35.3155L15.0522 32.7209L28.4066 46.0753L25.8502 46.991Z" fill="#74C208"/>
<path d="M36.7244 28.9626L37.5448 24.1742L42.3333 23.3538C42.6903 23.2922 43.0194 23.1215 43.2756 22.8653C43.5318 22.6092 43.7024 22.28 43.7641 21.923L44.5844 17.1345L49.3729 16.3142C49.6009 16.2753 49.819 16.192 50.0148 16.0688C50.2105 15.9457 50.3801 15.7852 50.5139 15.5966C50.6476 15.4079 50.7429 15.1947 50.7943 14.9693C50.8457 14.7438 50.8521 14.5104 50.8133 14.2824C50.7745 14.0544 50.6911 13.8363 50.568 13.6405C50.4449 13.4448 50.2844 13.2752 50.0957 13.1414C49.907 13.0077 49.6939 12.9124 49.4684 12.861C49.2429 12.8096 49.0095 12.8032 48.7815 12.842L42.7721 13.8722C42.415 13.9339 42.0859 14.1045 41.8297 14.3607C41.5735 14.6169 41.4029 14.946 41.3412 15.303L40.5209 20.0915L35.7324 20.9119C35.3754 20.9735 35.0462 21.1442 34.79 21.4003C34.5339 21.6565 34.3632 21.9857 34.3016 22.3427L33.4812 27.1312L28.6164 27.9706C28.173 28.0351 27.771 28.2668 27.4929 28.6182C27.2148 28.9695 27.0817 29.4139 27.1207 29.8603C27.1597 30.3067 27.368 30.7213 27.7029 31.019C28.0377 31.3168 28.4738 31.4752 28.9217 31.4618H29.2269L35.2364 30.4316C35.6092 30.3788 35.9551 30.2074 36.223 29.9429C36.491 29.6784 36.6668 29.3347 36.7244 28.9626Z" fill="#74C208"/>
<path d="M56.0882 30.9658L51.0136 29.058C50.6202 28.9082 50.186 28.9048 49.7903 29.0484C49.3946 29.1919 49.0636 29.473 48.8578 29.8402L46.95 33.2551L43.2871 31.8815C42.8937 31.7317 42.4596 31.7283 42.0638 31.8719C41.6681 32.0154 41.3372 32.2965 41.1314 32.6637L39.2236 36.0595L35.5607 34.6859C35.344 34.6058 35.1136 34.5691 34.8827 34.5779C34.6518 34.5868 34.4249 34.6411 34.215 34.7376C34.0051 34.8342 33.8162 34.9711 33.6592 35.1406C33.5022 35.3102 33.3801 35.509 33.3 35.7257C33.2198 35.9424 33.1831 36.1728 33.192 36.4037C33.2008 36.6346 33.2551 36.8614 33.3516 37.0714C33.4482 37.2813 33.5851 37.4701 33.7547 37.6271C33.9242 37.7841 34.123 37.9062 34.3397 37.9864L39.4144 39.8941C39.8078 40.044 40.2419 40.0474 40.6377 39.9038C41.0334 39.7602 41.3643 39.4792 41.5701 39.112L43.4779 35.6971L47.1408 37.0707C47.5342 37.2205 47.9684 37.2239 48.3641 37.0803C48.7599 36.9368 49.0908 36.6557 49.2966 36.2885L51.2044 32.8736L54.8673 34.2472C55.084 34.3286 55.3146 34.3665 55.546 34.3588C55.7774 34.3511 56.0049 34.2979 56.2158 34.2022C56.4266 34.1066 56.6165 33.9703 56.7746 33.8013C56.9328 33.6322 57.0561 33.4337 57.1375 33.217C57.2189 33.0003 57.2569 32.7696 57.2492 32.5383C57.2415 32.3069 57.1883 32.0793 57.0926 31.8685C56.9969 31.6577 56.8607 31.4678 56.6916 31.3096C56.5226 31.1515 56.324 31.0281 56.1073 30.9467L56.0882 30.9658Z" fill="#74C208"/>
<path d="M27.7389 21.6749L26.4034 17.9929L29.8183 16.0851C30.1846 15.8829 30.4667 15.5565 30.6136 15.1648C30.7605 14.773 30.7626 14.3416 30.6196 13.9484L29.3032 10.2283L32.7181 8.32052C33.128 8.09536 33.4316 7.71662 33.5622 7.26761C33.6927 6.8186 33.6396 6.3361 33.4145 5.92627C33.1893 5.51643 32.8106 5.21282 32.3616 5.08224C31.9125 4.95165 31.43 5.00478 31.0202 5.22993L26.289 7.90081C25.9226 8.10299 25.6406 8.42939 25.4937 8.82116C25.3468 9.21294 25.3446 9.64431 25.4877 10.0375L26.8231 13.7004L23.4082 15.6082C23.0419 15.8104 22.7599 16.1368 22.613 16.5285C22.466 16.9203 22.4639 17.3517 22.607 17.7449L23.9424 21.4269L20.5084 23.3346C20.3055 23.4461 20.1265 23.5965 19.9817 23.7771C19.8369 23.9578 19.7291 24.1652 19.6644 24.3875C19.5338 24.8366 19.5869 25.319 19.8121 25.7289C20.0372 26.1387 20.416 26.4423 20.865 26.5729C21.314 26.7035 21.7965 26.6504 22.2063 26.4252L26.9567 23.8116C27.3196 23.6064 27.5976 23.2787 27.7409 22.8871C27.8842 22.4956 27.8835 22.0659 27.7389 21.6749Z" fill="#74C208"/>
<path d="M14.4036 19.1376C14.1817 19.2012 13.9746 19.308 13.7941 19.4518C13.6136 19.5957 13.4632 19.7737 13.3515 19.9757C13.2399 20.1777 13.1692 20.3998 13.1435 20.6291C13.1178 20.8585 13.1376 21.0907 13.2017 21.3124L13.9267 23.8116C14.0335 24.1743 14.2547 24.4928 14.5572 24.7197C14.8597 24.9466 15.2274 25.0697 15.6055 25.0707C15.77 25.0945 15.937 25.0945 16.1015 25.0707C16.3234 25.0071 16.5305 24.9003 16.711 24.7564C16.8916 24.6126 17.0419 24.4346 17.1536 24.2326C17.2652 24.0306 17.3359 23.8085 17.3616 23.5792C17.3873 23.3498 17.3676 23.1176 17.3034 22.8959L16.5785 20.3967C16.521 20.1697 16.4186 19.9565 16.2774 19.7696C16.1363 19.5828 15.9591 19.426 15.7564 19.3087C15.5538 19.1914 15.3297 19.1158 15.0973 19.0864C14.865 19.057 14.6291 19.0744 14.4036 19.1376Z" fill="#74C208"/>
<path d="M20.6993 28.3902C20.3708 28.7193 20.1863 29.1653 20.1863 29.6303C20.1863 30.0953 20.3708 30.5413 20.6993 30.8703L21.4243 31.5953C21.5846 31.7692 21.7783 31.9089 21.994 32.006C22.2096 32.1031 22.4426 32.1557 22.6791 32.1605C22.9155 32.1653 23.1505 32.1223 23.3699 32.034C23.5893 31.9457 23.7886 31.814 23.9559 31.6468C24.1231 31.4796 24.2548 31.2803 24.3431 31.0609C24.4314 30.8414 24.4744 30.6065 24.4696 30.37C24.4648 30.1336 24.4122 29.9005 24.3151 29.6849C24.218 29.4693 24.0783 29.2755 23.9044 29.1152L23.1794 28.3902C22.8503 28.0617 22.4044 27.8772 21.9394 27.8772C21.4744 27.8772 21.0284 28.0617 20.6993 28.3902Z" fill="#74C208"/>
<path d="M40.063 46.1897H40.3682C40.6 46.2035 40.8322 46.1715 41.0515 46.0956C41.2709 46.0196 41.4732 45.9012 41.6468 45.7471C41.8204 45.5929 41.9619 45.4061 42.0634 45.1973C42.1648 44.9885 42.2241 44.7617 42.2378 44.53C42.2516 44.2982 42.2196 44.0661 42.1437 43.8467C42.0677 43.6273 41.9493 43.425 41.7952 43.2514C41.641 43.0778 41.4542 42.9363 41.2454 42.8349C41.0366 42.7334 40.8098 42.6742 40.5781 42.6604L36.2474 41.9927C36.0195 41.9538 35.7861 41.9603 35.5606 42.0116C35.3351 42.063 35.1219 42.1583 34.9333 42.292C34.7446 42.4258 34.5841 42.5954 34.461 42.7912C34.3379 42.9869 34.2545 43.205 34.2157 43.433C34.1768 43.661 34.1833 43.8944 34.2347 44.1199C34.286 44.3454 34.3813 44.5585 34.5151 44.7472C34.6488 44.9359 34.8184 45.0964 35.0142 45.2195C35.21 45.3426 35.4281 45.426 35.656 45.4648L40.063 46.1897Z" fill="#74C208"/>
</svg>
