<svg width="203" height="68" viewBox="0 0 203 68" fill="none" xmlns="http://www.w3.org/2000/svg">
<path d="M0.726074 50.4586V4.39699H124.321" stroke="#74C208" stroke-width="0.803424" stroke-miterlimit="10"/>
<path d="M199.362 12.4946V64.3889H57.5881" stroke="#74C208" stroke-width="0.803424" stroke-miterlimit="10"/>
<path d="M175.334 1.27791H169.096V7.51604H175.334V1.27791Z" stroke="#74C208" stroke-width="0.803424" stroke-miterlimit="10"/>
<path d="M188.908 1.27791H182.67V7.51604H188.908V1.27791Z" fill="#74C208"/>
<path d="M202.481 1.27791H196.243V7.51604H202.481V1.27791Z" stroke="#74C208" stroke-width="0.803424" stroke-miterlimit="10"/>
<path d="M49.8509 60H1V67.1463H49.8509V60Z" stroke="#74C208" stroke-width="0.803424" stroke-miterlimit="10"/>
<path d="M132.765 2.39689L128.759 6.40248" stroke="#74C208" stroke-width="0.803424" stroke-miterlimit="10"/>
<path d="M137.543 2.39689L133.543 6.40248" stroke="#74C208" stroke-width="0.803424" stroke-miterlimit="10"/>
<path d="M142.322 2.39689L138.322 6.40248" stroke="#74C208" stroke-width="0.803424" stroke-miterlimit="10"/>
<path d="M147.106 2.39689L143.1 6.40248" stroke="#74C208" stroke-width="0.803424" stroke-miterlimit="10"/>
<path d="M151.884 2.39689L147.879 6.40248" stroke="#74C208" stroke-width="0.803424" stroke-miterlimit="10"/>
<path d="M156.663 2.39689L152.663 6.40248" stroke="#74C208" stroke-width="0.803424" stroke-miterlimit="10"/>
<path d="M161.442 2.39689L157.441 6.40248" stroke="#74C208" stroke-width="0.803424" stroke-miterlimit="10"/>
</svg>
