<svg width="19" height="19" viewBox="0 0 19 19" fill="none" xmlns="http://www.w3.org/2000/svg">
<path fill-rule="evenodd" clip-rule="evenodd" d="M8.89439 0.427823C8.86086 0.432272 8.73284 0.445719 8.60989 0.457683C7.18898 0.596174 5.80405 1.08908 4.57674 1.89313C3.75377 2.43227 2.8718 3.27134 2.29159 4.06715C2.21323 4.1746 2.14517 4.24941 2.13276 4.24174C2.11987 4.23379 2.11695 4.2379 2.12556 4.25183C2.13371 4.26501 2.09169 4.3489 2.02985 4.44285C1.05779 5.9198 0.542892 7.65277 0.546651 9.43461C0.550086 11.051 0.975854 12.6227 1.78059 13.9896C3.01628 16.0886 5.0439 17.6007 7.38347 18.168C8.12022 18.3467 8.74426 18.4198 9.5345 18.4199C10.9783 18.4202 12.2476 18.1273 13.5276 17.4985C14.4488 17.046 15.2299 16.4812 15.9598 15.7398C16.6552 15.0336 17.1342 14.3681 17.5814 13.487C17.8415 12.9745 18.0092 12.5551 18.1823 11.9843C18.5725 10.6977 18.6544 9.15858 18.4032 7.83209C18.285 7.2077 18.0702 6.49542 17.8266 5.92069C17.717 5.66203 17.3387 4.89964 17.3002 4.85966C17.2923 4.85152 16.9441 5.1866 16.5264 5.60422L15.767 6.36359L15.8513 6.53625C16.0256 6.89279 16.1701 7.31503 16.2698 7.75882C16.3181 7.97375 16.3911 8.42775 16.4093 8.62576L16.4181 8.72082L15.9889 8.72732C15.5737 8.73362 15.556 8.73559 15.4448 8.78767C15.303 8.85414 15.1824 8.97554 15.1082 9.12667C15.0598 9.22517 15.0517 9.26638 15.0519 9.4143C15.0521 9.60505 15.0903 9.71752 15.2031 9.85995C15.2366 9.90218 15.2574 9.94336 15.2493 9.95142C15.2412 9.95951 15.2437 9.96312 15.2549 9.95949C15.2661 9.95583 15.3082 9.9733 15.3486 9.9983C15.51 10.0984 15.5784 10.111 16.008 10.1204L16.4157 10.1293L16.4082 10.1933C16.1813 12.1096 15.1862 13.834 13.6533 14.9674C13.035 15.4245 12.2958 15.7985 11.5666 16.0231C11.1772 16.143 10.8513 16.2108 10.2935 16.2878C10.2504 16.2938 10.2498 16.289 10.2409 15.8959C10.2313 15.4715 10.2167 15.3967 10.1129 15.2394C10.0854 15.1978 10.0177 15.128 9.96239 15.0843C9.90707 15.0406 9.86818 14.9978 9.87596 14.9891C9.88376 14.9805 9.88025 14.9791 9.8682 14.9859C9.85613 14.9928 9.80126 14.9844 9.74627 14.9674C9.60144 14.9225 9.36836 14.9383 9.24099 15.0017C9.10351 15.0702 8.97273 15.2035 8.90823 15.3411C8.85547 15.4536 8.85354 15.4705 8.84753 15.8773L8.84133 16.2973L8.76624 16.2871C7.85313 16.1626 7.16169 15.9556 6.43553 15.5892C4.5986 14.6624 3.28513 12.9984 2.80951 10.9956C2.75515 10.7667 2.66588 10.242 2.66602 10.1522C2.66608 10.1176 2.6924 10.115 3.05721 10.114C3.53433 10.1127 3.62049 10.0884 3.80557 9.90342C3.96154 9.74752 4.01445 9.60773 4.00224 9.38383C3.98743 9.11217 3.84703 8.90159 3.60521 8.78828C3.49293 8.73569 3.47491 8.73362 3.07747 8.72759C2.66927 8.72139 2.66596 8.72099 2.66619 8.67681C2.66629 8.65231 2.68454 8.51477 2.70671 8.37116C2.82061 7.63357 3.05532 6.90979 3.38777 6.27092C3.61949 5.82563 3.93018 5.33949 3.96808 5.36291C3.97814 5.36912 3.98167 5.36197 3.97594 5.34704C3.94932 5.2777 4.61636 4.53826 5.01911 4.19065C5.86435 3.46114 6.93153 2.92176 8.00758 2.68016C8.23926 2.62814 8.71337 2.54925 8.79671 2.54886C8.8409 2.54864 8.84131 2.55195 8.84751 2.95997C8.85354 3.35724 8.85562 3.37526 8.90823 3.48749C9.02158 3.72921 9.23225 3.86955 9.50402 3.88436C9.72802 3.89656 9.86787 3.84367 10.0238 3.68777C10.2047 3.50701 10.2306 3.4179 10.2413 2.93966C10.2491 2.59063 10.2537 2.54864 10.2842 2.54864C10.3751 2.54864 10.9573 2.65715 11.2008 2.71947C11.936 2.90764 12.5778 3.18707 13.2709 3.62062L13.4816 3.7524L14.2224 3.01183L14.9633 2.27127L14.708 2.09004C13.427 1.18059 12.0895 0.65894 10.5404 0.464548C10.292 0.433369 9.0597 0.405886 8.89439 0.427823ZM17.0493 1.79827C16.7944 1.83656 16.9932 1.64828 13.0924 5.54582L9.46682 9.16839L8.95706 8.75932C8.67671 8.53433 8.19585 8.14801 7.88849 7.9008C7.58114 7.65362 7.12848 7.28966 6.8826 7.09204C6.37993 6.688 6.3092 6.64953 6.0692 6.64953C5.74224 6.64953 5.47928 6.85676 5.39751 7.17887C5.3397 7.40658 5.3971 7.62461 5.56134 7.80103C5.61742 7.86132 6.4589 8.54595 7.43127 9.32246C9.34367 10.8496 9.29596 10.8159 9.5404 10.8159C9.65869 10.8159 9.82591 10.7702 9.90951 10.7151C9.95914 10.6824 14.0425 6.61163 17.0519 3.59474L17.8017 2.84317L17.8467 2.69379C18.0016 2.18009 17.5893 1.71712 17.0493 1.79827Z" fill="#74C208"/>
</svg>
