<svg width="33" height="33" viewBox="0 0 33 33" fill="none" xmlns="http://www.w3.org/2000/svg">
<path fill-rule="evenodd" clip-rule="evenodd" d="M32.0137 16.3887C32.0137 25.2252 24.8502 32.3887 16.0137 32.3887C7.17712 32.3887 0.0136719 25.2252 0.0136719 16.3887C0.0136719 7.55212 7.17712 0.388672 16.0137 0.388672C24.8502 0.388672 32.0137 7.55212 32.0137 16.3887ZM16.587 12.2006C15.0308 12.8479 11.9205 14.1876 7.2562 16.2198C6.49878 16.521 6.10202 16.8156 6.0659 17.1037C6.00485 17.5907 6.61462 17.7824 7.44496 18.0435C7.55791 18.079 7.67494 18.1158 7.79492 18.1548C8.61185 18.4204 9.71077 18.731 10.2821 18.7434C10.8003 18.7546 11.3786 18.5409 12.0172 18.1025C16.3752 15.1607 18.6248 13.6738 18.7661 13.6417C18.8657 13.6191 19.0038 13.5906 19.0974 13.6738C19.1909 13.757 19.1817 13.9144 19.1718 13.9567C19.1114 14.2142 16.7178 16.4395 15.4792 17.591C15.093 17.95 14.8191 18.2047 14.7631 18.2629C14.6377 18.3931 14.5098 18.5164 14.387 18.6348C13.628 19.3664 13.0589 19.9151 14.4185 20.8111C15.0719 21.2416 15.5947 21.5977 16.1163 21.9529C16.6859 22.3408 17.2541 22.7277 17.9892 23.2096C18.1764 23.3323 18.3553 23.4598 18.5295 23.584C19.1924 24.0566 19.788 24.4812 20.5238 24.4135C20.9513 24.3742 21.393 23.9722 21.6172 22.7731C22.1473 19.9395 23.1892 13.7999 23.43 11.27C23.4511 11.0483 23.4245 10.7646 23.4032 10.6401C23.3819 10.5156 23.3374 10.3381 23.1755 10.2068C22.9838 10.0513 22.6879 10.0185 22.5555 10.0208C21.9537 10.0314 21.0304 10.3524 16.587 12.2006Z" fill="white"/>
</svg>
