<svg width="646" height="359" viewBox="0 0 646 359" fill="none" xmlns="http://www.w3.org/2000/svg">
<path d="M450.545 348.638V356.597H556.674V348.638H450.545Z" stroke="#74C208" stroke-miterlimit="10"/>
<path d="M634.545 257.766H642.504V151.638H634.545V257.766Z" stroke="#74C208" stroke-miterlimit="10"/>
<path d="M616.545 1.1377L78.5454 1.1377L9.04541 70.6377V350.638" stroke="#74C208"/>
<line x1="229.545" y1="352.138" x2="530.545" y2="352.138" stroke="#74C208"/>
<path d="M639.045 80.6377L639.045 228.638" stroke="#74C208"/>
<path d="M643.545 40.2104V28.065H632.545V40.2104H643.545Z" fill="#74C208"/>
<path d="M643.545 13.7831V1.6377H632.545V13.7831H643.545Z" stroke="#74C208" stroke-miterlimit="10"/>
<path d="M643.545 40.2104V28.065H632.545V40.2104H643.545Z" stroke="#74C208" stroke-miterlimit="10"/>
<path d="M643.545 66.6377V54.4923H632.545V66.6377H643.545Z" stroke="#74C208" stroke-miterlimit="10"/>
<path d="M172.118 346.638H159.973V357.638H172.118V346.638Z" fill="#74C208"/>
<path d="M145.691 346.638H133.545V357.638H145.691V346.638Z" stroke="#74C208" stroke-miterlimit="10"/>
<path d="M172.118 346.638H159.973V357.638H172.118V346.638Z" stroke="#74C208" stroke-miterlimit="10"/>
<path d="M198.545 346.638H186.4V357.638H198.545V346.638Z" stroke="#74C208" stroke-miterlimit="10"/>
<path d="M52.4802 347.638L43.5454 356.638M63.1658 347.638L54.2189 356.638M73.8394 347.638L64.8924 356.638M84.5129 347.638L75.566 356.638M95.1864 347.638L86.2515 356.638M105.86 347.638L96.925 356.638M116.545 347.638L107.599 356.638" stroke="#74C208" stroke-miterlimit="10"/>
<path d="M15.5454 189.638H0.54541V204.638H15.5454V189.638Z" fill="#74C208"/>
<path d="M15.5454 342.638H0.54541V357.638H15.5454V342.638Z" fill="#74C208"/>
<path d="M586.545 350.83V328.847L629.754 285.638H645.483" stroke="#74C208" stroke-miterlimit="10"/>
</svg>
