<svg width="50" height="51" viewBox="0 0 50 51" fill="none" xmlns="http://www.w3.org/2000/svg">
<path d="M49.8477 32.4542L46.9415 20.0948C45.4695 14.6014 40.4916 10.782 34.8042 10.782H15.1957C9.50827 10.782 4.53044 14.6013 3.05847 20.0948L0.152216 32.4542C-0.591729 35.9994 1.45495 39.5366 4.90085 40.6574L5.07077 40.7119C8.26003 41.7501 11.7395 40.4121 13.4134 37.5057L15.9422 33.7666C16.5771 32.6642 17.7525 31.9843 19.0232 31.9843H30.9769C32.2476 31.9843 33.423 32.6642 34.0579 33.7666L36.5866 37.5057C38.2606 40.4121 41.7408 41.7501 44.9301 40.7119L45.0993 40.6574C48.5449 39.5366 50.5918 35.9994 49.8477 32.4542ZM18.6568 24.1716H14.5856V28.2435H11.0412V24.1716H6.96999V20.6288H11.0412V16.5584H14.5856V20.6288H18.6568V24.1716ZM36.5945 15.7102C37.8275 15.7102 38.8257 16.7083 38.8257 17.9415C38.8257 19.1729 37.8275 20.171 36.5945 20.171C35.3631 20.171 34.3649 19.1729 34.3649 17.9415C34.3649 16.7083 35.3631 15.7102 36.5945 15.7102ZM32.1337 24.6326C30.9022 24.6326 29.9033 23.6335 29.9033 22.4005C29.9033 21.1699 30.9022 20.1709 32.1337 20.1709C33.3659 20.1709 34.364 21.1699 34.364 22.4005C34.3641 23.6336 33.366 24.6326 32.1337 24.6326ZM36.5945 29.0925C35.3631 29.0925 34.3649 28.0944 34.3649 26.8629C34.3649 25.6298 35.3631 24.6317 36.5945 24.6317C37.8275 24.6317 38.8257 25.6298 38.8257 26.8629C38.8257 28.0944 37.8275 29.0925 36.5945 29.0925ZM41.0552 24.6326C39.8238 24.6326 38.8256 23.6335 38.8256 22.4005C38.8256 21.1699 39.8238 20.1709 41.0552 20.1709C42.2875 20.1709 43.2864 21.1699 43.2864 22.4005C43.2864 23.6336 42.2875 24.6326 41.0552 24.6326Z" fill="white"/>
</svg>
