<svg width="33" height="33" viewBox="0 0 33 33" fill="none" xmlns="http://www.w3.org/2000/svg">
<path d="M16.6301 0.915039C12.2847 0.915039 11.7394 0.934039 10.0327 1.01171C8.32932 1.08971 7.16664 1.35937 6.1493 1.75504C5.09695 2.16371 4.20428 2.71037 3.31493 3.60004C2.42493 4.48937 1.87825 5.38204 1.46825 6.43404C1.07158 7.45171 0.801575 8.61471 0.724907 10.3174C0.648907 12.024 0.628906 12.5697 0.628906 16.915C0.628906 21.2604 0.64824 21.804 0.725574 23.5107C0.803908 25.214 1.07358 26.3767 1.46892 27.394C1.87792 28.4464 2.42459 29.339 3.31427 30.2284C4.20328 31.1184 5.09595 31.6664 6.14763 32.075C7.16564 32.4707 8.32865 32.7404 10.0317 32.8184C11.7384 32.896 12.2834 32.915 16.6284 32.915C20.9741 32.915 21.5178 32.896 23.2245 32.8184C24.9278 32.7404 26.0918 32.4707 27.1099 32.075C28.1619 31.6664 29.0532 31.1184 29.9422 30.2284C30.8322 29.339 31.3789 28.4464 31.7889 27.3944C32.1822 26.3767 32.4522 25.2137 32.5322 23.511C32.6089 21.8044 32.6289 21.2604 32.6289 16.915C32.6289 12.5697 32.6089 12.0244 32.5322 10.3177C32.4522 8.61437 32.1822 7.45171 31.7889 6.43437C31.3789 5.38204 30.8322 4.48937 29.9422 3.60004C29.0522 2.71004 28.1622 2.16337 27.1089 1.75504C26.0888 1.35937 24.9255 1.08971 23.2221 1.01171C21.5155 0.934039 20.9721 0.915039 16.6254 0.915039H16.6301ZM15.1947 3.79837C15.6207 3.79771 16.0961 3.79837 16.6301 3.79837C20.9021 3.79837 21.4085 3.81371 23.0955 3.89037C24.6555 3.96171 25.5022 4.22237 26.0662 4.44137C26.8128 4.73137 27.3452 5.07804 27.9049 5.63804C28.4649 6.19804 28.8115 6.73137 29.1022 7.47804C29.3212 8.04137 29.5822 8.88804 29.6532 10.448C29.7299 12.1347 29.7465 12.6414 29.7465 16.9114C29.7465 21.1814 29.7299 21.688 29.6532 23.3747C29.5819 24.9347 29.3212 25.7814 29.1022 26.3447C28.8122 27.0914 28.4649 27.623 27.9049 28.1827C27.3449 28.7427 26.8132 29.0894 26.0662 29.3794C25.5028 29.5994 24.6555 29.8594 23.0955 29.9307C21.4088 30.0074 20.9021 30.024 16.6301 30.024C12.3577 30.024 11.8514 30.0074 10.1647 29.9307C8.60466 29.8587 7.75798 29.598 7.19364 29.379C6.44697 29.089 5.91363 28.7424 5.35362 28.1824C4.79362 27.6224 4.44695 27.0904 4.15628 26.3434C3.93727 25.78 3.67627 24.9334 3.60527 23.3734C3.5286 21.6867 3.51327 21.18 3.51327 16.9074C3.51327 12.6347 3.5286 12.1307 3.60527 10.444C3.67661 8.88404 3.93727 8.03737 4.15628 7.47337C4.44628 6.72671 4.79362 6.19337 5.35362 5.63337C5.91363 5.07337 6.44697 4.72671 7.19364 4.43604C7.75765 4.21604 8.60466 3.95604 10.1647 3.88437C11.6407 3.81771 12.2127 3.79771 15.1947 3.79437V3.79837Z" fill="white"/>
<path d="M25.1364 6.41574C24.7566 6.41574 24.3854 6.52836 24.0696 6.73936C23.7539 6.95036 23.5078 7.25027 23.3625 7.60114C23.2172 7.95201 23.1792 8.33809 23.2533 8.71056C23.3275 9.08302 23.5104 9.42513 23.779 9.69362C24.0476 9.96211 24.3898 10.1449 24.7623 10.2189C25.1347 10.2929 25.5208 10.2548 25.8716 10.1094C26.2225 9.96397 26.5223 9.71778 26.7332 9.40195C26.9441 9.08612 27.0566 8.71484 27.0564 8.33507C27.0564 7.27507 26.1964 6.41574 25.1364 6.41574Z" fill="white"/>
<path fill-rule="evenodd" clip-rule="evenodd" d="M16.5957 8.65907C12.058 8.65907 8.37891 12.3381 8.37891 16.8757C8.37891 21.4134 12.058 25.0907 16.5957 25.0907C21.1334 25.0907 24.8114 21.4134 24.8114 16.8757C24.8114 12.3381 21.1334 8.65907 16.5957 8.65907ZM16.6289 22.1651C19.5284 22.1651 21.8789 19.8146 21.8789 16.9151C21.8789 14.0156 19.5284 11.6651 16.6289 11.6651C13.7294 11.6651 11.3789 14.0156 11.3789 16.9151C11.3789 19.8146 13.7294 22.1651 16.6289 22.1651Z" fill="white"/>
</svg>
