<svg width="73" height="77" viewBox="0 0 73 77" fill="none" xmlns="http://www.w3.org/2000/svg">
<path d="M3.55396 1.41211H1.95972V54.3194" stroke="#74C208" stroke-miterlimit="10"/>
<path d="M2.7562 37.5059H1.23438V57.7987H2.7562V37.5059Z" stroke="#74C208" stroke-miterlimit="10"/>
<path d="M26.5601 74.5407V76.0625H46.8529V74.5407H26.5601Z" stroke="#74C208" stroke-miterlimit="10"/>
<path d="M29.5005 75.3012H65.3034L71.4456 69.1591V26.7795L69.8963 25.2302V6.34076L71.4456 4.84197V1.41211H33.5591L32.0372 2.93503" stroke="#74C208" stroke-miterlimit="10"/>
<path d="M1.95972 64.0322H6.16311L14.4251 72.2942V75.3016" stroke="#74C208" stroke-miterlimit="10"/>
<path d="M16.874 0.779297H15.6079V2.04547H16.874V0.779297Z" fill="#74C208"/>
<path d="M14.119 0.779297H12.8528V2.04547H14.119V0.779297Z" stroke="#74C208" stroke-miterlimit="10"/>
<path d="M16.874 0.779297H15.6079V2.04547H16.874V0.779297Z" stroke="#74C208" stroke-miterlimit="10"/>
<path d="M19.6291 0.779297H18.3629V2.04547H19.6291V0.779297Z" stroke="#74C208" stroke-miterlimit="10"/>
<path d="M5.47844 1.00684L4.6665 1.81987M6.44947 1.00684L5.63644 1.81987M7.4194 1.00684L6.60637 1.81987M8.38933 1.00684L7.5763 1.81987M9.35926 1.00684L8.54732 1.81987M10.3292 1.00684L9.51725 1.81987M11.3002 1.00684L10.4872 1.81987" stroke="#74C208" stroke-miterlimit="10"/>
<path d="M70.7183 10.6945L71.2965 11.2728V11.5153L70.7183 12.0935L70.7468 12.1209L71.325 11.5427H71.5664L72.1446 12.1209L72.1732 12.0935L71.5949 11.5142V11.2728L72.1732 10.6945L72.1446 10.666L71.5664 11.2442H71.325L70.7468 10.666L70.7183 10.6945Z" fill="#74C208"/>
<path d="M70.7183 15.5695L71.2965 16.1478V16.3892L70.7183 16.9674L70.7468 16.9959L71.325 16.4177H71.5664L72.1446 16.9959L72.1732 16.9674L71.5949 16.3892V16.1478L72.1732 15.5695L72.1446 15.541L71.5664 16.1192H71.325L70.7468 15.541L70.7183 15.5695Z" fill="#74C208"/>
<path d="M70.7183 20.4436L71.2965 21.0218V21.2643L70.7183 21.8425L70.7468 21.871L71.325 21.2928H71.5664L72.1446 21.871L72.1732 21.8425L71.5949 21.2643V21.0218L72.1732 20.4436L72.1446 20.415L71.5664 20.9933H71.325L70.7468 20.415L70.7183 20.4436Z" fill="#74C208"/>
</svg>
