<svg width="465" height="617" viewBox="0 0 465 617" fill="none" xmlns="http://www.w3.org/2000/svg">
<path d="M334.298 14.4668H330.001V34.8929H334.298V14.4668Z" fill="#74C208"/>
<path d="M361.975 14.4668H357.677V34.8929H361.975V14.4668Z" fill="#74C208"/>
<path d="M393.961 14.4668H389.664V34.8929H393.961V14.4668Z" fill="#74C208"/>
<path d="M425.941 14.4668H421.644V34.8929H425.941V14.4668Z" fill="#74C208"/>
<path d="M444.894 14.4668H440.597V34.8929H444.894V14.4668Z" fill="#74C208"/>
<path d="M343.022 14.4668H335.927V34.8929H343.022V14.4668Z" fill="#74C208"/>
<path d="M356.049 14.4668H348.954V34.8929H356.049V14.4668Z" fill="#74C208"/>
<path d="M375.008 14.4668H367.913V34.8929H375.008V14.4668Z" fill="#74C208"/>
<path d="M388.035 14.4668H380.94V34.8929H388.035V14.4668Z" fill="#74C208"/>
<path d="M402.685 14.4668H395.589V34.8929H402.685V14.4668Z" fill="#74C208"/>
<path d="M415.712 14.4668H408.617V34.8929H415.712V14.4668Z" fill="#74C208"/>
<path d="M434.665 14.4668H427.569V34.8929H434.665V14.4668Z" fill="#74C208"/>
<path d="M347.332 14.4668H344.65V34.8929H347.332V14.4668Z" fill="#74C208"/>
<path d="M366.285 14.4668H363.603V34.8929H366.285V14.4668Z" fill="#74C208"/>
<path d="M379.312 14.4668H376.63V34.8929H379.312V14.4668Z" fill="#74C208"/>
<path d="M406.988 14.4668H404.306V34.8929H406.988V14.4668Z" fill="#74C208"/>
<path d="M420.015 14.4668H417.334V34.8929H420.015V14.4668Z" fill="#74C208"/>
<path d="M438.975 14.4668H436.293V34.8929H438.975V14.4668Z" fill="#74C208"/>
<path d="M449.204 14.4668H446.522V34.8929H449.204V14.4668Z" fill="#74C208"/>
<path d="M15.8292 457.605H6.4917V459.57H15.8292V457.605Z" fill="#74C208"/>
<path d="M15.8292 444.953H6.4917V446.917H15.8292V444.953Z" fill="#74C208"/>
<path d="M15.8292 430.336H6.4917V432.301H15.8292V430.336Z" fill="#74C208"/>
<path d="M15.8292 415.713H6.4917V417.677H15.8292V415.713Z" fill="#74C208"/>
<path d="M15.8292 407.054H6.4917V409.018H15.8292V407.054Z" fill="#74C208"/>
<path d="M15.8292 453.618H6.4917V456.862H15.8292V453.618Z" fill="#74C208"/>
<path d="M15.8292 447.661H6.4917V450.904H15.8292V447.661Z" fill="#74C208"/>
<path d="M15.8292 438.995H6.4917V442.239H15.8292V438.995Z" fill="#74C208"/>
<path d="M15.8292 433.044H6.4917V436.288H15.8292V433.044Z" fill="#74C208"/>
<path d="M15.8292 426.349H6.4917V429.593H15.8292V426.349Z" fill="#74C208"/>
<path d="M15.8292 420.391H6.4917V423.635H15.8292V420.391Z" fill="#74C208"/>
<path d="M15.8292 411.726H6.4917V414.97H15.8292V411.726Z" fill="#74C208"/>
<path d="M15.8292 451.648H6.4917V452.875H15.8292V451.648Z" fill="#74C208"/>
<path d="M15.8292 442.982H6.4917V444.21H15.8292V442.982Z" fill="#74C208"/>
<path d="M15.8292 437.031H6.4917V438.258H15.8292V437.031Z" fill="#74C208"/>
<path d="M15.8292 424.378H6.4917V425.606H15.8292V424.378Z" fill="#74C208"/>
<path d="M15.8292 418.427H6.4917V419.655H15.8292V418.427Z" fill="#74C208"/>
<path d="M15.8292 409.761H6.4917V410.989H15.8292V409.761Z" fill="#74C208"/>
<path d="M15.8292 405.083H6.4917V406.311H15.8292V405.083Z" fill="#74C208"/>
<path d="M137.927 6.71875H11.1572V355.022" stroke="#74C208" stroke-width="0.777421" stroke-miterlimit="10"/>
<path d="M218.604 23.3646L232.691 6.71875H456.777V38.7311L435.013 56.6564V342.215L456.777 363.985V611.121H137.927" stroke="#74C208" stroke-width="0.777421" stroke-miterlimit="10"/>
<path d="M448.758 134.161L455.129 140.532V143.201L448.758 149.573L449.074 149.889L455.446 143.511H458.115L464.486 149.889L464.803 149.573L458.425 143.201V140.532L464.803 134.161L464.486 133.844L458.115 140.216H455.446L449.074 133.844L448.758 134.161Z" fill="#74C208"/>
<path d="M448.758 187.885L455.129 194.263V196.932L448.758 203.304L449.074 203.614L455.446 197.242H458.115L464.486 203.614L464.803 203.304L458.425 196.926V194.263L464.803 187.885L464.486 187.575L458.115 193.947H455.446L449.074 187.575L448.758 187.885Z" fill="#74C208"/>
<path d="M448.758 241.616L455.129 247.988V250.657L448.758 257.028L449.074 257.345L455.446 250.973H458.115L464.486 257.345L464.803 257.028L458.425 250.657V247.988L464.803 241.616L464.486 241.3L458.115 247.678H455.446L449.074 241.3L448.758 241.616Z" fill="#74C208"/>
<path d="M74.5422 6.71875V308.923" stroke="#74C208" stroke-width="0.777421" stroke-miterlimit="10"/>
<path d="M11.1572 308.923H435.013" stroke="#74C208" stroke-width="0.777421" stroke-miterlimit="10"/>
<path d="M80.3063 303.159H68.7847V314.681H80.3063V303.159Z" fill="#74C208"/>
<path d="M160.337 0.955078H148.815V12.4767H160.337V0.955078Z" stroke="#74C208" stroke-width="0.777421" stroke-miterlimit="10"/>
<path d="M185.409 0.955078H173.888V12.4767H185.409V0.955078Z" fill="#74C208"/>
<path d="M210.482 0.955078H198.96V12.4767H210.482V0.955078Z" stroke="#74C208" stroke-width="0.777421" stroke-miterlimit="10"/>
<path d="M370.704 303.159H359.183V314.681H370.704V303.159Z" fill="#74C208"/>
<path d="M462.541 556.699H451.02V568.221H462.541V556.699Z" fill="#74C208"/>
<path d="M98.8778 556.699H93.1138V568.221H98.8778V556.699Z" fill="#74C208"/>
<path d="M370.704 605.363H359.183V616.885H370.704V605.363Z" fill="#74C208"/>
<path d="M364.947 308.923V611.121" stroke="#74C208" stroke-width="0.777421" stroke-miterlimit="10"/>
<path d="M93.1137 529.171H11.1572V611.127H93.1137V529.171Z" stroke="#74C208" stroke-width="0.777421" stroke-miterlimit="10"/>
<path d="M70.006 588.02V552.279M70.006 552.279H34.2651M70.006 552.279L34.9759 587.303" stroke="#74C208" stroke-width="0.777421" stroke-miterlimit="10"/>
<path d="M61.0109 19.6367H25.2635M25.2635 19.6367V55.3776M25.2635 19.6367L60.2936 54.6603" stroke="#74C208" stroke-width="0.777421" stroke-miterlimit="10"/>
<path d="M93.1138 562.463H456.777" stroke="#74C208" stroke-width="0.777421" stroke-miterlimit="10"/>
<path d="M412.293 573.086C430.548 573.086 445.372 579.457 445.372 587.309C445.372 595.16 430.548 601.531 412.293 601.531M412.293 573.086C394.039 573.086 379.215 579.457 379.215 587.309C379.215 595.16 394.039 601.531 412.293 601.531M412.293 573.086C423.925 573.086 433.372 579.457 433.372 587.309C433.372 595.16 423.931 601.531 412.293 601.531M412.293 573.086C400.662 573.086 391.221 579.457 391.221 587.309C391.221 595.16 400.656 601.531 412.293 601.531M412.293 573.086C418.161 573.086 422.917 579.457 422.917 587.309C422.917 595.16 418.154 601.531 412.293 601.531M412.293 573.086C406.432 573.086 401.67 579.457 401.67 587.309C401.67 595.16 406.432 601.531 412.293 601.531M412.293 573.086V601.531M445.372 587.302H379.215" stroke="#74C208" stroke-width="0.777421" stroke-miterlimit="10"/>
<path d="M17.561 354.842H4.75354V462.407H17.561V354.842Z" stroke="#74C208" stroke-width="0.777421" stroke-miterlimit="10"/>
<path d="M10.8923 469.018V489.444M0.682495 479.234H21.1086M10.8923 472.791C14.4464 472.791 17.3284 475.673 17.3284 479.227C17.3284 482.781 14.4464 485.663 10.8923 485.663C7.33827 485.663 4.45626 482.781 4.45626 479.227C4.45626 475.673 7.33827 472.791 10.8923 472.791Z" stroke="#74C208" stroke-width="0.777421" stroke-miterlimit="10"/>
<path d="M10.8923 498.891V519.317M0.682495 509.107H21.1086M10.8923 502.664C14.4464 502.664 17.3284 505.546 17.3284 509.1C17.3284 512.654 14.4464 515.536 10.8923 515.536C7.33827 515.536 4.45626 512.654 4.45626 509.1C4.45626 505.546 7.33827 502.664 10.8923 502.664Z" stroke="#74C208" stroke-width="0.777421" stroke-miterlimit="10"/>
</svg>
