<svg width="166" height="68" viewBox="0 0 166 68" fill="none" xmlns="http://www.w3.org/2000/svg">
<path d="M35.8037 8.90581L35.9039 11.8475L37.7425 12.0815C45.8992 13.1178 53.521 20.0042 55.627 28.2277C55.8944 29.2974 56.1284 30.7014 56.1284 31.3032V32.4063H62.4131C66.6585 32.4063 68.4971 32.306 68.1628 32.072C67.8954 31.8714 66.2908 30.9689 64.6194 29.9994C61.6108 28.2946 61.5773 28.2611 61.1428 26.5897C60.6079 24.4168 58.4684 19.7702 57.1647 17.965L56.1284 16.5276L56.9307 13.519C57.3653 11.8475 57.6996 10.477 57.6661 10.4435C57.6327 10.3767 56.2621 10.711 54.6241 11.1455L51.6489 11.9478L50.2784 11.0118C46.7015 8.53809 41.9546 6.76636 37.4751 6.19806L35.7034 5.96406L35.8037 8.90581ZM40.3166 9.50752C43.0912 10.1427 46.1666 11.5801 48.9412 13.4856C50.3787 14.455 51.4484 14.9899 51.8161 14.8561C52.1838 14.7559 52.7521 14.6221 53.0864 14.5219C53.6881 14.3547 53.6881 14.4216 53.3873 15.625C53.0864 16.8619 53.1532 17.029 54.8916 19.603C56.7301 22.3108 57.7664 24.6508 58.669 28.0271C59.3376 30.6346 59.3042 31.136 58.4016 31.0023C57.8333 30.9354 57.5993 30.5343 57.265 28.8963C55.4598 19.9039 48.3061 12.7501 39.2468 10.8781C37.6088 10.5438 37.2077 10.3098 37.1408 9.74153C37.0071 8.83895 37.4417 8.83895 40.3166 9.50752Z" fill="white"/>
<path d="M9.57872 32.5568L12.5205 32.4565L12.7545 30.6179C13.7908 22.4613 20.6771 14.8395 28.9006 12.7335C29.9703 12.466 31.3743 12.232 31.9761 12.232L33.0792 12.232L33.0792 5.9474C33.0792 1.70193 32.9789 -0.136662 32.7449 0.197628C32.5444 0.465057 31.6418 2.06964 30.6723 3.74109C28.9675 6.74969 28.934 6.78312 27.2626 7.21769C25.0897 7.75256 20.4431 9.892 18.6379 11.1957L17.2005 12.232L14.1919 11.4297C12.5205 10.9952 11.1499 10.6609 11.1164 10.6943C11.0496 10.7277 11.3839 12.0983 11.8185 13.7363L12.6207 16.7115L11.6847 18.0821C9.211 21.659 7.43927 26.4059 6.87098 30.8853L6.63698 32.6571L9.57872 32.5568ZM10.1804 28.0439C10.8156 25.2693 12.253 22.1938 14.1585 19.4192C15.1279 17.9818 15.6628 16.9121 15.5291 16.5444C15.4288 16.1766 15.2951 15.6083 15.1948 15.2741C15.0276 14.6723 15.0945 14.6723 16.2979 14.9732C17.5348 15.2741 17.7019 15.2072 20.276 13.4689C22.9837 11.6303 25.3237 10.594 28.7 9.69143C31.3075 9.02285 31.8089 9.05628 31.6752 9.95886C31.6084 10.5272 31.2072 10.7612 29.5692 11.0954C20.5768 12.9006 13.423 20.0544 11.551 29.1136C11.2167 30.7516 10.9827 31.1528 10.4144 31.2196C9.51186 31.3534 9.51186 30.9188 10.1804 28.0439Z" fill="#74C208"/>
<path d="M80.8657 22.8791V31.7378H82.0357H83.2057L83.2726 25.7874L83.3729 19.8705L84.3423 25.7874L85.3118 31.7378H86.5821C88.0529 31.7378 87.8858 32.2058 88.9555 25.052L89.7244 19.8705L89.8247 25.7874L89.8915 31.7378H91.2287H92.5658V22.8791V14.0205H90.5601C89.4569 14.0205 88.5544 14.1542 88.5544 14.3547C88.5544 14.923 86.8495 25.8543 86.7492 25.9546C86.6823 26.0214 86.2143 23.3805 85.6795 20.1379L84.71 14.1876L82.7712 14.0873L80.8657 13.987V22.8791Z" fill="white"/>
<path d="M93.7025 14.5887C93.8362 14.8896 94.6719 17.6976 95.5745 20.8065C96.9451 25.4865 97.246 26.9574 97.246 29.0968V31.7377H98.5831H99.9203V28.6288C99.9203 25.8877 100.121 24.8848 101.592 19.8705C102.528 16.7616 103.263 14.1541 103.263 14.1207C103.263 14.0538 102.695 14.0204 101.959 14.0204H100.656L99.7531 17.6976C99.2517 19.7368 98.7503 21.4416 98.6165 21.5085C98.4828 21.6088 97.948 19.9373 97.4131 17.8313L96.4771 14.0204H94.9728C93.7359 14.0204 93.5353 14.1207 93.7025 14.5887Z" fill="white"/>
<path d="M105.235 14.9898C104.366 15.859 104.266 16.1933 104.266 18.0319C104.266 20.5056 104.667 21.3413 107.074 23.7148C109.748 26.3222 110.35 28.796 108.411 29.264C107.308 29.5314 106.606 28.8628 106.606 27.5257C106.606 26.4225 106.573 26.3891 105.269 26.3891C103.765 26.3891 103.631 26.7902 104.266 29.1303C104.767 30.902 105.971 31.7377 108.077 31.7377C110.116 31.7377 111.152 31.1026 111.821 29.5314C112.891 26.9908 112.155 24.8514 109.28 22.0099C107.275 20.0042 106.773 19.1016 107.007 17.6976C107.275 15.7921 109.347 16.0596 109.548 17.9984C109.648 18.9679 109.748 19.0347 110.985 19.0347C112.155 19.0347 112.289 18.9345 112.289 18.199C112.289 16.9287 111.453 15.1904 110.584 14.5553C110.083 14.221 109.113 14.0204 108.01 14.0204C106.472 14.0204 106.071 14.1541 105.235 14.9898Z" fill="white"/>
<path d="M113.091 14.4884C112.991 14.7558 112.957 15.3241 113.024 15.7587C113.091 16.3939 113.359 16.5276 114.562 16.6279L115.966 16.7282V24.2497V31.7377H117.303H118.64V24.2162V16.6947H120.145H121.649V15.3576V14.0204H117.47C114.127 14.0204 113.225 14.1207 113.091 14.4884Z" fill="white"/>
<path d="M122.986 22.8791V31.7377H124.323H125.66V22.8791V14.0204H124.323H122.986V22.8791Z" fill="white"/>
<path d="M128.836 14.7559C127.633 15.7922 127.332 17.3968 127.332 22.8791C127.332 28.3614 127.633 29.966 128.836 30.9689C130.207 32.1723 132.981 32.0386 134.419 30.7683C135.422 29.8992 135.522 29.5983 135.622 27.4254L135.756 25.052H134.419H133.048L132.948 26.924C132.848 29.0634 132.179 29.8657 131.109 29.1972C130.574 28.8629 130.508 28.1609 130.508 22.8791C130.508 17.5973 130.574 16.8953 131.109 16.561C132.079 15.9259 132.848 16.6948 132.948 18.4999L133.048 20.0376H134.419H135.756L135.622 17.9985C135.488 16.1933 135.321 15.7922 134.419 14.9899C132.981 13.7196 130.207 13.6193 128.836 14.7559Z" fill="white"/>
<path d="M138.23 21.9431C137.528 26.3222 136.893 30.3003 136.792 30.8017C136.625 31.6709 136.692 31.7377 137.829 31.7377C139.132 31.7377 139.199 31.6374 139.533 29.6317C139.734 28.3948 139.734 28.3948 141.372 28.3948C143.01 28.3948 143.01 28.3948 143.211 29.6317C143.545 31.6709 143.612 31.7377 145.016 31.7377H146.353L146.152 30.4674C146.019 29.7988 145.384 25.8542 144.748 21.7091L143.545 14.1876L141.506 14.0873L139.5 13.987L138.23 21.9431ZM142.007 21.3748C142.241 22.9459 142.475 24.6174 142.576 25.1188C142.743 26.0214 142.709 26.0548 141.372 26.0548C139.968 26.0548 139.968 26.0548 140.169 25.0185C140.269 24.4502 140.536 22.6451 140.77 21.007C140.971 19.369 141.272 18.1322 141.405 18.2659C141.539 18.433 141.807 19.8036 142.007 21.3748Z" fill="white"/>
<path d="M147.723 22.8791V31.7712L151.334 31.6709L154.911 31.5706V30.4006V29.2306L152.671 29.1303L150.398 29.03V21.542V14.0205H149.061H147.723V22.8791Z" fill="white"/>
<path d="M19.3566 33.8103V43.9393L22.0309 41.265C24.2038 39.1255 24.7052 38.4235 24.7052 37.5878C24.7052 36.6518 25.006 36.8858 29.4855 41.3652L34.2324 46.1121L38.9125 41.4321C41.4865 38.8581 43.6928 36.7521 43.8265 36.7521C43.9937 36.7521 44.0939 37.1532 44.0939 37.6881C44.0939 38.3901 44.6957 39.2258 46.7682 41.265L49.4426 43.9393V33.8103C49.4426 28.2611 49.3088 23.7148 49.1751 23.7148C49.0414 23.7148 45.7988 26.8571 41.9879 30.668L35.0681 37.6212V39.2592V40.9307L41.2525 34.7463L47.4368 28.562V33.71C47.4368 38.8246 47.4368 38.8581 46.7682 38.2564C46.2 37.7215 46.0997 37.2201 46.0997 34.4455V31.2363L40.2496 37.0863L34.3996 42.9364L28.5495 37.0863L22.6995 31.2363V34.4455C22.6995 37.2201 22.5992 37.7215 22.0309 38.2564C21.3623 38.8581 21.3623 38.8246 21.3623 33.71V28.562L27.5466 34.7463L33.731 40.9307V39.3929V37.8552L26.8112 30.8017C22.9669 26.8905 19.7577 23.7148 19.624 23.7148C19.4569 23.7148 19.3566 28.2611 19.3566 33.8103Z" fill="white"/>
<path d="M3.67847 37.1532C7.22193 39.2258 7.22193 39.2258 7.65651 40.8973C8.19137 43.0701 10.3308 47.7168 11.6345 49.5219L12.6708 50.9594L11.8351 53.9345C11.3671 55.5725 11.0663 56.9766 11.0997 57.01C11.1665 57.0768 12.5371 56.7426 14.1751 56.308L17.1169 55.4723L18.8218 56.6088C22.3986 58.9489 26.5773 60.6203 29.9536 60.988C31.0233 61.1217 32.1599 61.2889 32.4942 61.3557C32.9956 61.5229 33.0625 61.222 33.0625 58.5477V55.5725L31.3242 55.372C25.6412 54.8037 19.0892 50.5916 15.8466 45.4436C14.4426 43.2373 13.306 40.2287 12.8714 37.5878L12.4703 35.2478L6.28592 35.1809L0.13501 35.0806L3.67847 37.1532ZM11.5343 38.5907C13.306 47.4493 20.6938 54.8037 29.5524 56.6088C31.2573 56.9431 31.5916 57.1103 31.6584 57.7789C31.7587 58.5143 31.6919 58.5477 30.3213 58.3137C26.711 57.7789 21.7969 55.6394 19.3232 53.5334C18.4206 52.7979 17.9526 52.6308 16.6489 52.6977L15.0777 52.7645L15.412 51.6948C15.7129 50.6585 15.6126 50.3911 13.9077 47.8839C12.0691 45.2096 11.0328 42.8361 10.1302 39.4598C9.46167 36.8524 9.4951 36.3509 10.3977 36.4847C10.966 36.5515 11.2 36.9527 11.5343 38.5907Z" fill="white"/>
<path d="M37.776 64.2975C39.8486 60.754 39.8486 60.754 41.5201 60.3195C43.6929 59.7846 48.3396 57.6451 50.1447 56.3414L51.5822 55.3051L54.5573 56.1408C56.1953 56.6089 57.5994 56.9097 57.6328 56.8763C57.6996 56.8094 57.3653 55.4388 56.9308 53.8008L56.0951 50.8591L57.2316 49.1542C59.5717 45.5773 61.2431 41.3987 61.6108 38.0224C61.7445 36.9527 61.9117 35.8161 61.9785 35.4818C62.1457 34.9804 61.8448 34.9135 59.1705 34.9135L56.1953 34.9135L55.9948 36.6518C55.4265 42.3347 51.2144 48.8868 46.0664 52.1294C43.8601 53.5334 40.8515 54.67 38.2106 55.1046L35.8706 55.5057L35.8037 61.69L35.7034 67.841L37.776 64.2975ZM39.2135 56.4417C48.0721 54.67 55.4265 47.2822 57.2316 38.4235C57.5659 36.7187 57.7331 36.3844 58.4016 36.3175C59.1371 36.2172 59.1705 36.2841 58.9365 37.6547C58.4016 41.265 56.2622 46.179 54.1562 48.6528C53.4207 49.5554 53.2536 50.0234 53.3205 51.3271L53.3873 52.8982L52.3176 52.564C51.2813 52.2631 51.0139 52.3634 48.5067 54.0683C45.8324 55.9068 43.4589 56.9431 40.0826 57.8457C37.4752 58.5143 36.9737 58.4809 37.1074 57.5783C37.1743 57.01 37.5755 56.776 39.2135 56.4417Z" fill="#74C208"/>
<path d="M140.135 35.7492C137.494 36.351 137.026 37.6213 137.026 44.3405C137.026 47.2488 137.193 50.1905 137.394 50.8925C137.828 52.564 139.299 53.4666 141.506 53.4666C142.876 53.4666 143.277 53.2994 144.247 52.33L145.383 51.1934V44.8085C145.383 39.9279 145.283 38.1561 144.915 37.4875C144.146 36.0167 142.141 35.2812 140.135 35.7492ZM142.308 38.4904C142.575 38.7578 142.709 40.5964 142.709 44.6079C142.709 50.4914 142.575 51.1265 141.338 51.1265C140.001 51.1265 139.7 49.9231 139.7 44.7082C139.7 42.0339 139.834 39.4264 140.035 38.9584C140.369 38.0224 141.606 37.7884 142.308 38.4904Z" fill="white"/>
<path d="M161.262 35.5821C161.095 35.649 160.493 35.7827 159.992 35.883C158.02 36.3175 157.05 40.095 158.287 42.5353C158.588 43.137 159.791 44.6079 160.961 45.8448C163.234 48.1848 163.669 49.4885 162.566 50.5917C161.53 51.6614 160.092 50.7922 160.092 49.0874C160.092 48.1848 159.992 48.1179 158.922 48.1179C157.786 48.1179 157.752 48.1514 157.752 49.4551C157.752 52.1628 159.123 53.4666 161.931 53.4666C163.101 53.4666 163.669 53.266 164.471 52.5305C165.374 51.7283 165.574 51.2937 165.708 49.7225C165.875 47.4828 165.173 45.9451 162.934 43.7722C162.064 42.9365 161.162 41.8667 160.894 41.3653C159.892 39.4599 160.627 37.8218 162.232 38.223C162.867 38.3901 163.067 38.691 163.168 39.5267C163.268 40.4961 163.368 40.5964 164.538 40.6967C165.708 40.797 165.775 40.7636 165.775 39.8276C165.775 38.3901 165.14 36.8524 164.338 36.3175C163.569 35.8495 161.83 35.415 161.262 35.5821Z" fill="white"/>
<path d="M69.8342 44.6079V53.4666H73.5114H77.1886V52.1294V50.7922H74.8486H72.5085V48.2851V45.7779H74.3471H76.1857V44.4408V43.1036H74.3471H72.5085V40.7636V38.4236H74.8486H77.1886V37.0864V35.7492H73.5114H69.8342V44.6079Z" fill="white"/>
<path d="M78.6259 36.1504C78.6928 36.3844 79.3614 38.3567 80.0634 40.4961L81.3337 44.4408L79.9296 48.5191C79.1608 50.7922 78.5256 52.8314 78.5256 53.032C78.5256 53.2994 78.9936 53.4666 79.6622 53.4666H80.8322L81.902 50.1237C82.5037 48.3185 83.072 46.8811 83.2057 46.9813C83.306 47.0816 83.8408 48.5525 84.4091 50.224L85.4454 53.2994L86.816 53.3997C87.5849 53.4666 88.22 53.4331 88.22 53.3328C88.22 53.2326 87.5514 51.16 86.7157 48.7197L85.2114 44.307L86.5486 40.2956C87.284 38.0558 87.8857 36.1504 87.8857 35.9832C87.8857 35.8495 87.3843 35.7492 86.7491 35.7492H85.6126L84.5094 38.9918L83.4063 42.2679L82.4034 39.0253L81.3671 35.7492H79.8962C78.8934 35.7492 78.4922 35.883 78.6259 36.1504Z" fill="white"/>
<path d="M89.8915 44.6413V53.4999L91.1618 53.3997L92.3986 53.2994L92.4989 50.0233L92.5992 46.7807H93.6021C96.5773 46.7807 97.9144 45.0759 97.9144 41.265C97.9144 36.9861 96.6775 35.7492 92.3986 35.7492H89.8915V44.6413ZM95.0395 38.9584C95.4072 39.8944 95.2401 43.3041 94.839 43.7053C94.605 43.9393 94.0032 44.1064 93.5018 44.1064H92.5658V41.265V38.4235H93.7024C94.4378 38.4235 94.9058 38.6241 95.0395 38.9584Z" fill="white"/>
<path d="M99.2516 44.6079V53.4666H102.929H106.606V52.1294V50.7922H104.266H101.926V48.2851V45.7779H103.764H105.603V44.4408V43.1036H103.764H101.926V40.7636V38.4236H104.266H106.606V37.0864V35.7492H102.929H99.2516V44.6079Z" fill="white"/>
<path d="M108.612 44.6079V53.4666L111.052 53.4331C116.468 53.3997 116.969 52.6977 116.969 44.6748C116.969 36.5515 116.468 35.7492 111.286 35.7492H108.612V44.6079ZM113.96 39.0587C114.128 39.4264 114.295 41.8667 114.295 44.6079C114.295 47.3491 114.128 49.7894 113.96 50.1571C113.693 50.5917 113.258 50.7922 112.456 50.7922H111.286V44.6079V38.4236H112.456C113.258 38.4236 113.693 38.6241 113.96 39.0587Z" fill="white"/>
<path d="M118.64 44.6079V53.4666H119.978H121.315V44.6079V35.7492H119.978H118.64V44.6079Z" fill="white"/>
<path d="M122.719 36.9861C122.819 38.223 122.852 38.2564 124.256 38.3567L125.66 38.457V45.9785V53.4666H126.998H128.335V45.9785V38.457L129.772 38.3567C131.143 38.2564 131.176 38.223 131.276 36.9861L131.377 35.7492H126.998H122.618L122.719 36.9861Z" fill="white"/>
<path d="M132.68 44.6079V53.4666H134.018H135.355V44.6079V35.7492H134.018H132.68V44.6079Z" fill="white"/>
<path d="M147.389 44.6079V53.4665H148.559H149.729L149.763 47.1819L149.796 40.9307L150.632 43.9393C151.066 45.5773 151.869 48.3853 152.337 50.1236L153.239 53.2994L154.677 53.3997L156.081 53.4999V44.6413V35.7492H154.911H153.741V40.8304C153.741 43.605 153.674 45.8113 153.54 45.711C153.406 45.5439 152.236 41.5658 151.066 37.1532L150.699 35.7492H149.061H147.389V44.6079Z" fill="white"/>
<path d="M33.4677 28.42L30.5872 31.4699L27.9609 29.2672L34.3149 22.9132L40.8383 29.2672L38.0425 31.4699L35.6704 28.42" stroke="#74C208" stroke-width="1.28036"/>
</svg>
