<svg width="17" height="22" viewBox="0 0 17 22" fill="none" xmlns="http://www.w3.org/2000/svg">
<path fill-rule="evenodd" clip-rule="evenodd" d="M7.47347 0.433178C7.41198 0.442853 7.21072 0.470689 7.02624 0.494959C4.63779 0.809356 2.49433 2.16808 1.23863 4.16372C0.964746 4.59901 0.613712 5.39765 0.477888 5.89448C0.268314 6.66098 0.214959 7.12456 0.240943 7.95279C0.272428 8.9576 0.420731 9.64326 0.858439 10.8083C1.89253 13.5605 4.35871 17.201 7.51636 20.6363C7.82482 20.9719 8.11244 21.2855 8.1555 21.3332L8.23377 21.4199L8.31204 21.3332C8.35506 21.2855 8.64272 20.9719 8.95118 20.6363C12.1088 17.201 14.575 13.5605 15.6091 10.8083C16.0468 9.64326 16.1951 8.9576 16.2266 7.95279C16.2453 7.35758 16.2341 7.09733 16.1744 6.74342C15.8992 5.10957 15.1544 3.73117 13.9385 2.60571C12.7179 1.47578 11.3277 0.809806 9.55311 0.504839C9.21268 0.446338 7.7165 0.394765 7.47347 0.433178ZM8.92698 5.2303C9.88527 5.43959 10.7262 6.19928 10.9876 7.09188C11.1108 7.51275 11.0921 8.13461 10.9436 8.55605C10.6752 9.31726 10.0082 9.94917 9.1972 10.2104C7.67446 10.701 6.01701 9.9545 5.52398 8.55605C5.42711 8.28133 5.40493 8.13994 5.40359 7.78881C5.40072 7.04912 5.64071 6.48765 6.18343 5.9645C6.90173 5.27204 7.89767 5.00552 8.92698 5.2303Z" fill="#74C208"/>
</svg>
