<svg width="51" height="51" viewBox="0 0 51 51" fill="none" xmlns="http://www.w3.org/2000/svg">
<g clip-path="url(#clip0_1_303)">
<path d="M14.4944 31.5786C14.4867 31.5007 14.4623 31.4291 14.4623 31.3512V30.6844C14.4623 30.367 14.5142 30.0542 14.618 29.7567C14.618 29.7567 16.2797 27.532 17.0656 24.9181C16.2049 23.1023 15.4237 20.8425 15.4237 18.6025C15.4237 18.0822 15.4618 17.5787 15.5153 17.0827C14.3938 15.9078 12.8785 15.2424 11.2046 15.2424C7.74847 15.2424 4.94397 18.0623 4.94397 22.4446C4.94397 25.951 7.79739 29.7566 7.79739 29.7566C7.89808 30.0542 7.95003 30.3669 7.95003 30.6843V31.3511C7.95003 32.1828 7.46478 32.9396 6.70794 33.286L2.17757 35.1369C1.12464 35.6221 0.37542 36.5895 0.166436 37.7278L0.0886038 38.7242C0.0489553 39.243 0.225908 39.7542 0.579912 40.1341C0.932354 40.5171 1.42835 40.7323 1.94866 40.7323H9.35374L9.65735 36.8306L9.67718 36.7253C10.048 34.6791 11.3999 32.9396 13.2889 32.0699L14.4944 31.5786Z" fill="white"/>
<path d="M50.0001 37.7278C49.7926 36.5895 49.0433 35.622 47.9905 35.1369L43.4571 33.286C42.7003 32.9396 42.218 32.1828 42.218 31.3511V30.6843C42.218 30.3669 42.2684 30.0542 42.3721 29.7566C42.3721 29.7566 45.224 25.951 45.224 22.4446C45.224 18.0623 42.421 15.2424 38.9588 15.2424C37.288 15.2424 35.7727 15.9078 34.6481 17.0857C34.7031 17.5801 34.7412 18.0821 34.7412 18.6024C34.7412 20.8409 33.9615 23.1007 33.1024 24.9165C33.8867 27.5303 35.5514 29.7566 35.5514 29.7566C35.6521 30.0542 35.7055 30.3669 35.7055 30.6843V31.3511C35.7055 31.429 35.6796 31.5006 35.6719 31.5785L36.795 32.0363C38.7634 32.9366 40.1153 34.676 40.4907 36.7222L40.5091 36.8291L40.8112 40.7323H48.2193C48.7396 40.7323 49.2355 40.5171 49.5865 40.1341C49.9405 39.7542 50.1176 39.243 50.0778 38.7242L50.0001 37.7278Z" fill="white"/>
<path d="M36.0078 33.9635L30.5238 31.722C29.6083 31.3008 29.0239 30.3853 29.0239 29.3813V28.5726C29.0239 28.1911 29.0849 27.8111 29.2116 27.4495C29.2116 27.4495 32.6601 22.8475 32.6601 18.6024C32.6601 13.2984 29.2681 9.88818 25.0826 9.88818C20.8986 9.88818 17.5051 13.2985 17.5051 18.6024C17.5051 22.8475 20.9566 27.4495 20.9566 27.4495C21.0802 27.8111 21.1443 28.1911 21.1443 28.5726V29.3813C21.1443 30.3853 20.5553 31.3008 19.6413 31.722L14.1573 33.9635C12.8832 34.5479 11.9753 35.7197 11.7251 37.0991L11.4427 40.7322H25.0826H38.7224L38.4432 37.0991C38.1898 35.7198 37.2819 34.548 36.0078 33.9635Z" fill="white"/>
</g>
<defs>
<clipPath id="clip0_1_303">
<rect width="50" height="50" fill="white" transform="translate(0.083252 0.310303)"/>
</clipPath>
</defs>
</svg>
