<svg width="20" height="20" viewBox="0 0 20 20" fill="none" xmlns="http://www.w3.org/2000/svg">
<path fill-rule="evenodd" clip-rule="evenodd" d="M1.91436 1.25416C1.42358 1.69847 0.844208 2.36413 0.627177 2.73326C0.267576 3.34496 0.232655 3.53298 0.234963 4.84772C0.236839 6.04399 0.302786 6.47098 0.620107 7.34502C2.28305 11.9252 7.7296 17.3717 12.3098 19.0347C13.1838 19.352 13.6108 19.4179 14.8071 19.4198C16.1218 19.4221 16.3098 19.3872 16.9215 19.0276C17.2907 18.8106 17.9563 18.2312 18.4006 17.7404C19.6589 16.3498 19.6314 16.2501 17.3624 13.9809C15.6595 12.2781 15.4747 12.135 14.9801 12.135C14.5309 12.135 14.3036 12.2639 13.5805 12.9287C12.778 13.6663 12.6671 13.7223 12.0064 13.7223C11.3897 13.7223 11.147 13.6228 10.1699 12.9694C8.73323 12.0084 7.54821 10.8211 6.6456 9.43856C6.03765 8.50709 5.93246 8.2423 5.93246 7.64185C5.93246 6.98903 5.99047 6.87445 6.72612 6.0743C7.39092 5.3512 7.51979 5.12392 7.51979 4.67471C7.51979 4.18004 7.37664 3.99533 5.67387 2.29242C3.40471 0.0234035 3.305 -0.00415826 1.91436 1.25416Z" fill="#74C208"/>
</svg>
