<svg width="597" height="794" viewBox="0 0 597 794" fill="none" xmlns="http://www.w3.org/2000/svg">
<path d="M429.131 18.3804H423.604V44.6546H429.131V18.3804Z" fill="#74C208"/>
<path d="M464.731 18.3804H459.204V44.6546H464.731V18.3804Z" fill="#74C208"/>
<path d="M505.876 18.3804H500.348V44.6546H505.876V18.3804Z" fill="#74C208"/>
<path d="M547.012 18.3804H541.484V44.6546H547.012V18.3804Z" fill="#74C208"/>
<path d="M571.391 18.3804H565.863V44.6546H571.391V18.3804Z" fill="#74C208"/>
<path d="M440.352 18.3804H431.226V44.6546H440.352V18.3804Z" fill="#74C208"/>
<path d="M457.109 18.3804H447.983V44.6546H457.109V18.3804Z" fill="#74C208"/>
<path d="M481.497 18.3804H472.37V44.6546H481.497V18.3804Z" fill="#74C208"/>
<path d="M498.254 18.3804H489.127V44.6546H498.254V18.3804Z" fill="#74C208"/>
<path d="M517.097 18.3804H507.97V44.6546H517.097V18.3804Z" fill="#74C208"/>
<path d="M533.854 18.3804H524.727V44.6546H533.854V18.3804Z" fill="#74C208"/>
<path d="M558.233 18.3804H549.106V44.6546H558.233V18.3804Z" fill="#74C208"/>
<path d="M445.896 18.3804H442.447V44.6546H445.896V18.3804Z" fill="#74C208"/>
<path d="M470.276 18.3804H466.826V44.6546H470.276V18.3804Z" fill="#74C208"/>
<path d="M487.033 18.3804H483.583V44.6546H487.033V18.3804Z" fill="#74C208"/>
<path d="M522.633 18.3804H519.183V44.6546H522.633V18.3804Z" fill="#74C208"/>
<path d="M539.39 18.3804H535.94V44.6546H539.39V18.3804Z" fill="#74C208"/>
<path d="M563.777 18.3804H560.328V44.6546H563.777V18.3804Z" fill="#74C208"/>
<path d="M576.935 18.3804H573.485V44.6546H576.935V18.3804Z" fill="#74C208"/>
<path d="M19.4832 588.391H7.47241V590.918H19.4832V588.391Z" fill="#74C208"/>
<path d="M19.4832 572.117H7.47241V574.643H19.4832V572.117Z" fill="#74C208"/>
<path d="M19.4832 553.315H7.47241V555.842H19.4832V553.315Z" fill="#74C208"/>
<path d="M19.4832 534.505H7.47241V537.032H19.4832V534.505Z" fill="#74C208"/>
<path d="M19.4832 523.367H7.47241V525.894H19.4832V523.367Z" fill="#74C208"/>
<path d="M19.4832 583.263H7.47241V587.436H19.4832V583.263Z" fill="#74C208"/>
<path d="M19.4832 575.599H7.47241V579.772H19.4832V575.599Z" fill="#74C208"/>
<path d="M19.4832 564.453H7.47241V568.626H19.4832V564.453Z" fill="#74C208"/>
<path d="M19.4832 556.798H7.47241V560.97H19.4832V556.798Z" fill="#74C208"/>
<path d="M19.4832 548.186H7.47241V552.359H19.4832V548.186Z" fill="#74C208"/>
<path d="M19.4832 540.523H7.47241V544.695H19.4832V540.523Z" fill="#74C208"/>
<path d="M19.4832 529.376H7.47241V533.549H19.4832V529.376Z" fill="#74C208"/>
<path d="M19.4832 580.728H7.47241V582.307H19.4832V580.728Z" fill="#74C208"/>
<path d="M19.4832 569.581H7.47241V571.161H19.4832V569.581Z" fill="#74C208"/>
<path d="M19.4832 561.926H7.47241V563.505H19.4832V561.926Z" fill="#74C208"/>
<path d="M19.4832 545.651H7.47241V547.23H19.4832V545.651Z" fill="#74C208"/>
<path d="M19.4832 537.996H7.47241V539.575H19.4832V537.996Z" fill="#74C208"/>
<path d="M19.4832 526.85H7.47241V528.429H19.4832V526.85Z" fill="#74C208"/>
<path d="M19.4832 520.832H7.47242V522.411H19.4832V520.832Z" fill="#74C208"/>
<path d="M176.538 8.41429H13.4736V456.439" stroke="#74C208" stroke-miterlimit="10"/>
<path d="M280.313 29.826L298.434 8.41429H586.677V49.5919L558.682 72.6493V439.964L586.677 467.967V785.859H176.538" stroke="#74C208" stroke-miterlimit="10"/>
<path d="M576.361 172.343L584.557 180.539V183.972L576.361 192.167L576.769 192.575L584.964 184.371H588.397L596.593 192.575L597 192.167L588.796 183.972V180.539L597 172.343L596.593 171.936L588.397 180.132H584.964L576.769 171.936L576.361 172.343Z" fill="#74C208"/>
<path d="M576.361 241.449L584.557 249.653V253.086L576.361 261.282L576.769 261.681L584.964 253.485H588.397L596.593 261.681L597 261.282L588.796 253.078V249.653L597 241.449L596.593 241.05L588.397 249.246H584.964L576.769 241.05L576.361 241.449Z" fill="#74C208"/>
<path d="M576.361 310.563L584.557 318.759V322.192L576.361 330.387L576.769 330.795L584.964 322.599H588.397L596.593 330.795L597 330.387L588.796 322.192V318.759L597 310.563L596.593 310.156L588.397 318.36H584.964L576.769 310.156L576.361 310.563Z" fill="#74C208"/>
<path d="M95.0059 8.41429V397.141" stroke="#74C208" stroke-miterlimit="10"/>
<path d="M13.4736 397.141H558.682" stroke="#74C208" stroke-miterlimit="10"/>
<path d="M102.42 389.727H87.6001V404.547H102.42V389.727Z" fill="#74C208"/>
<path d="M205.364 1H190.544V15.8203H205.364V1Z" stroke="#74C208" stroke-miterlimit="10"/>
<path d="M237.615 1H222.794V15.8203H237.615V1Z" fill="#74C208"/>
<path d="M269.865 1H255.045V15.8203H269.865V1Z" stroke="#74C208" stroke-miterlimit="10"/>
<path d="M475.961 389.727H461.141V404.547H475.961V389.727Z" fill="#74C208"/>
<path d="M594.091 715.856H579.271V730.676H594.091V715.856Z" fill="#74C208"/>
<path d="M126.309 715.856H118.895V730.676H126.309V715.856Z" fill="#74C208"/>
<path d="M475.961 778.453H461.141V793.274H475.961V778.453Z" fill="#74C208"/>
<path d="M468.555 397.141V785.859" stroke="#74C208" stroke-miterlimit="10"/>
<path d="M118.895 680.447H13.4736V785.868H118.895V680.447Z" stroke="#74C208" stroke-miterlimit="10"/>
<path d="M89.1711 756.144V710.17M89.1711 710.17H43.1975M89.1711 710.17L44.1118 755.221" stroke="#74C208" stroke-miterlimit="10"/>
<path d="M77.6008 25.03H31.6189M31.6189 25.03V71.0036M31.6189 25.03L76.6782 70.0809" stroke="#74C208" stroke-miterlimit="10"/>
<path d="M118.895 723.27H586.676" stroke="#74C208" stroke-miterlimit="10"/>
<path d="M529.457 736.935C552.938 736.935 572.006 745.131 572.006 755.23C572.006 765.329 552.938 773.524 529.457 773.524M529.457 736.935C505.975 736.935 486.908 745.131 486.908 755.23C486.908 765.329 505.975 773.524 529.457 773.524M529.457 736.935C544.418 736.935 556.57 745.131 556.57 755.23C556.57 765.329 544.427 773.524 529.457 773.524M529.457 736.935C514.495 736.935 502.351 745.131 502.351 755.23C502.351 765.329 514.487 773.524 529.457 773.524M529.457 736.935C537.004 736.935 543.122 745.131 543.122 755.23C543.122 765.329 536.996 773.524 529.457 773.524M529.457 736.935C521.918 736.935 515.792 745.131 515.792 755.23C515.792 765.329 521.918 773.524 529.457 773.524M529.457 736.935V773.524M572.006 755.221H486.908" stroke="#74C208" stroke-miterlimit="10"/>
<path d="M21.7109 456.206H5.23657V594.567H21.7109V456.206Z" stroke="#74C208" stroke-miterlimit="10"/>
<path d="M13.1329 603.07V629.345M0 616.212H26.2742M13.1329 607.925C17.7045 607.925 21.4117 611.632 21.4117 616.203C21.4117 620.775 17.7045 624.482 13.1329 624.482C8.56136 624.482 4.85421 620.775 4.85421 616.203C4.85421 611.632 8.56136 607.925 13.1329 607.925Z" stroke="#74C208" stroke-miterlimit="10"/>
<path d="M13.1329 641.497V667.771M0 654.638H26.2742M13.1329 646.351C17.7045 646.351 21.4117 650.058 21.4117 654.63C21.4117 659.201 17.7045 662.908 13.1329 662.908C8.56136 662.908 4.85421 659.201 4.85421 654.63C4.85421 650.058 8.56136 646.351 13.1329 646.351Z" stroke="#74C208" stroke-miterlimit="10"/>
</svg>
