<svg width="32" height="50" viewBox="0 0 32 50" fill="none" xmlns="http://www.w3.org/2000/svg">
<path d="M0.189941 8.72566C0.189941 4.23883 3.84027 0.588501 8.3271 0.588501C12.8139 0.588501 16.4643 4.23883 16.4643 8.72566C16.4643 11.3735 15.1737 13.7072 13.2094 15.1931V8.72566C13.2094 6.03389 11.0189 3.84336 8.3271 3.84336C5.63533 3.84336 3.4448 6.03389 3.4448 8.72566V15.1931C1.48049 13.7072 0.189941 11.3735 0.189941 8.72566ZM27.8563 20.1177C26.0596 20.1177 24.6014 21.5759 24.6014 23.3725V21.7451C24.6014 19.9484 23.1432 18.4902 21.3466 18.4902C19.5499 18.4902 18.0917 19.9484 18.0917 21.7451V20.1177C18.0917 18.321 16.6335 16.8628 14.8368 16.8628C13.0401 16.8628 11.582 18.321 11.582 20.1177V8.72566C11.582 6.92898 10.1238 5.4708 8.3271 5.4708C6.53042 5.4708 5.07224 6.92898 5.07224 8.72566V25.4508C4.59214 25.1725 4.04044 25 3.4448 25C1.64812 25 0.189941 26.4582 0.189941 28.2548V33.1371C0.189941 33.876 0.442194 34.5937 0.902757 35.1698L6.69967 44.5292H26.2288L29.9605 39.17C30.5936 38.537 31.1111 37.2871 31.1111 36.392V23.3725C31.1111 21.5759 29.653 20.1177 27.8563 20.1177ZM6.69967 46.1566V47.784C6.69967 48.6824 7.42713 49.4115 8.3271 49.4115H24.6014C25.5014 49.4115 26.2288 48.6824 26.2288 47.784V46.1566H6.69967Z" fill="#74C208"/>
</svg>
