<svg width="181" height="78" viewBox="0 0 181 78" fill="none" xmlns="http://www.w3.org/2000/svg">
<path d="M90.5453 0.80127C139.827 0.80127 179.831 17.9531 179.831 39.0779M90.5453 0.80127C41.2634 0.80127 1.25977 17.9288 1.25977 39.0779M90.5453 0.80127C121.951 0.80127 147.43 17.9531 147.43 39.0779C147.43 60.2027 121.951 77.3545 90.5453 77.3545M90.5453 0.80127C59.1399 0.80127 33.661 17.9531 33.661 39.0779C33.661 60.2027 59.1399 77.3545 90.5453 77.3545M90.5453 0.80127C74.703 0.80127 61.8603 17.9383 61.8603 39.0779C61.8603 60.2175 74.703 77.3545 90.5453 77.3545M90.5453 0.80127C106.388 0.80127 119.23 17.9383 119.23 39.0779C119.23 60.2175 106.388 77.3545 90.5453 77.3545M90.5453 0.80127V77.3787M179.831 39.0779C179.831 60.2027 139.827 77.3545 90.5453 77.3545M179.831 39.0779H1.25977M90.5453 77.3545C41.2634 77.3545 1.25977 60.2269 1.25977 39.0779" stroke="#74C208" stroke-linecap="round" stroke-linejoin="round"/>
</svg>
