<svg width="385" height="599" viewBox="0 0 385 599" fill="none" xmlns="http://www.w3.org/2000/svg">
<mask id="path-1-inside-1_1_370" fill="white">
<path d="M384.546 568.358C384.546 584.927 371.115 598.358 354.546 598.358H30.5461C13.9776 598.358 0.546143 584.927 0.546143 568.358V30.3584C0.546143 13.7898 13.9776 0.358398 30.5461 0.358398H40.9723C53.4136 0.358398 64.5639 8.03755 69.0002 19.6611L73.221 30.7198C77.6573 42.3433 88.8076 50.0225 101.249 50.0225H164.252C176.694 50.0225 187.844 42.3431 192.28 30.7193L196.5 19.6615C200.937 8.03776 212.087 0.358398 224.529 0.358398H354.546C371.115 0.358398 384.546 13.7899 384.546 30.3584V568.358Z"/>
</mask>
<path d="M192.28 30.7193L191.346 30.3627L192.28 30.7193ZM69.0002 19.6611L68.066 20.0177L69.0002 19.6611ZM354.546 598.358V597.358H30.5461V598.358V599.358H354.546V598.358ZM0.546143 568.358H1.54614V30.3584H0.546143H-0.453857V568.358H0.546143ZM30.5461 0.358398V1.3584H40.9723V0.358398V-0.641602H30.5461V0.358398ZM69.0002 19.6611L68.066 20.0177L72.2867 31.0764L73.221 30.7198L74.1552 30.3632L69.9345 19.3045L69.0002 19.6611ZM101.249 50.0225V51.0225H164.252V50.0225V49.0225H101.249V50.0225ZM192.28 30.7193L193.215 31.0759L197.435 20.0181L196.5 19.6615L195.566 19.305L191.346 30.3627L192.28 30.7193ZM224.529 0.358398V1.3584H354.546V0.358398V-0.641602H224.529V0.358398ZM384.546 30.3584H383.546V568.358H384.546H385.546V30.3584H384.546ZM354.546 0.358398V1.3584C370.562 1.3584 383.546 14.3421 383.546 30.3584H384.546H385.546C385.546 13.2376 371.667 -0.641602 354.546 -0.641602V0.358398ZM196.5 19.6615L197.435 20.0181C201.723 8.78178 212.502 1.3584 224.529 1.3584V0.358398V-0.641602C211.672 -0.641602 200.15 7.29374 195.566 19.305L196.5 19.6615ZM164.252 50.0225V51.0225C177.108 51.0225 188.631 43.0871 193.215 31.0759L192.28 30.7193L191.346 30.3627C187.058 41.5991 176.279 49.0225 164.252 49.0225V50.0225ZM73.221 30.7198L72.2867 31.0764C76.8709 43.0874 88.3929 51.0225 101.249 51.0225V50.0225V49.0225C89.2223 49.0225 78.4437 41.5993 74.1552 30.3632L73.221 30.7198ZM40.9723 0.358398V1.3584C52.9989 1.3584 63.7775 8.78157 68.066 20.0177L69.0002 19.6611L69.9345 19.3045C65.3503 7.29352 53.8283 -0.641602 40.9723 -0.641602V0.358398ZM0.546143 30.3584H1.54614C1.54614 14.3421 14.5299 1.3584 30.5461 1.3584V0.358398V-0.641602C13.4253 -0.641602 -0.453857 13.2376 -0.453857 30.3584H0.546143ZM30.5461 598.358V597.358C14.5299 597.358 1.54614 584.375 1.54614 568.358H0.546143H-0.453857C-0.453857 585.479 13.4253 599.358 30.5461 599.358V598.358ZM354.546 598.358V599.358C371.667 599.358 385.546 585.479 385.546 568.358H384.546H383.546C383.546 584.375 370.562 597.358 354.546 597.358V598.358Z" fill="#74C208" mask="url(#path-1-inside-1_1_370)"/>
</svg>
