<svg width="50" height="50" viewBox="0 0 50 50" fill="none" xmlns="http://www.w3.org/2000/svg">
<g clip-path="url(#clip0_1_259)">
<path d="M25 2.08325C25 2.08325 6.25 7.39575 6.25 8.33325V27.2916C6.25 36.8749 20.1042 45.3124 23.9583 47.6041C24.2667 47.8101 24.6292 47.9201 25 47.9201C25.3708 47.9201 25.7333 47.8101 26.0417 47.6041C30 45.4166 43.75 36.8749 43.75 27.2916V8.33325C43.75 7.39575 25 2.08325 25 2.08325ZM34.7917 19.1666L23.3333 30.6249C23.1479 30.827 22.9226 30.9883 22.6715 31.0987C22.4205 31.209 22.1492 31.266 21.875 31.266C21.6008 31.266 21.3295 31.209 21.0785 31.0987C20.8274 30.9883 20.6021 30.827 20.4167 30.6249L15.3125 25.5208C14.9366 25.1673 14.6909 24.6973 14.6153 24.1869C14.5397 23.6765 14.6385 23.1555 14.8958 22.7083C15.0753 22.4554 15.3088 22.2458 15.5796 22.0946C15.8503 21.9435 16.1514 21.8548 16.4608 21.8348C16.7702 21.8148 17.0802 21.8642 17.3681 21.9793C17.656 22.0943 17.9146 22.2722 18.125 22.4999L21.875 26.2499L31.875 16.2499C32.2762 15.949 32.7725 15.8029 33.2727 15.8385C33.7729 15.874 34.2435 16.0888 34.5981 16.4434C34.9527 16.7981 35.1675 17.2687 35.2031 17.7689C35.2386 18.2691 35.0926 18.7654 34.7917 19.1666Z" fill="white"/>
</g>
<defs>
<clipPath id="clip0_1_259">
<rect width="50" height="50" fill="white"/>
</clipPath>
</defs>
</svg>
