<svg width="53" height="52" viewBox="0 0 53 52" fill="none" xmlns="http://www.w3.org/2000/svg">
<path d="M3.40308 1.59421L3.40308 48.4527L50.3182 48.4527M3.40308 1.59421L6.18564 8.0673M3.40308 1.59421L0.80786 8.0673M50.3182 48.4527L42.9057 45.6361M50.3182 48.4527L42.9057 51.0866M8.66777 1.59421C8.66777 1.59421 50.035 1.38854 50.3182 1.59421C50.7113 1.87967 50.3182 43.1018 50.3182 43.1018" stroke="#74C208" stroke-width="1.20207" stroke-linecap="round"/>
<path d="M25.8337 24.9003V33.0765H22.1153V27.3141C22.1153 26.7526 22.1016 26.2767 22.0742 25.8863C22.0468 25.4892 21.9715 25.1673 21.8483 24.9208C21.725 24.6743 21.5367 24.4962 21.2833 24.3867C21.0368 24.2703 20.6876 24.2121 20.2356 24.2121C19.8727 24.2121 19.52 24.2874 19.1776 24.438C18.8353 24.5818 18.5271 24.7359 18.2532 24.9003V33.0765H14.5554V21.5414H18.2532V22.8151C18.89 22.3152 19.4995 21.9249 20.0815 21.6442C20.6636 21.3634 21.3073 21.223 22.0126 21.223C22.7727 21.223 23.4438 21.3942 24.0258 21.7366C24.6079 22.0721 25.0633 22.5686 25.392 23.226C26.1315 22.6028 26.8505 22.1132 27.549 21.7571C28.2475 21.4011 28.9323 21.223 29.6033 21.223C30.8496 21.223 31.7946 21.5962 32.4383 22.3426C33.0888 23.089 33.4141 24.1641 33.4141 25.5679V33.0765H29.6958V27.3141C29.6958 26.7457 29.6821 26.2664 29.6547 25.8761C29.6341 25.4857 29.5622 25.1673 29.439 24.9208C29.3226 24.6743 29.1377 24.4962 28.8843 24.3867C28.631 24.2703 28.2749 24.2121 27.8161 24.2121C27.5079 24.2121 27.2066 24.2668 26.9122 24.3764C26.6177 24.4791 26.2582 24.6537 25.8337 24.9003Z" fill="#74C208"/>
<path d="M42.9148 25.3859H35.7212V23.8721C36.2709 23.4742 36.8206 23.0516 37.3704 22.6045C37.9242 22.1573 38.3673 21.7717 38.6996 21.4476C39.1959 20.9676 39.5488 20.5491 39.758 20.1922C39.9672 19.8353 40.0718 19.4825 40.0718 19.1338C40.0718 18.7154 39.9364 18.3933 39.6657 18.1677C39.399 17.9379 39.0134 17.8231 38.5088 17.8231C38.1314 17.8231 37.7334 17.901 37.315 18.0569C36.9006 18.2128 36.515 18.4118 36.1581 18.6538H35.9612V16.617C36.2525 16.4898 36.6812 16.3626 37.2473 16.2354C37.8175 16.1083 38.3878 16.0447 38.958 16.0447C40.1067 16.0447 40.9826 16.2867 41.5856 16.7708C42.1887 17.2508 42.4902 17.9318 42.4902 18.8138C42.4902 19.3923 42.3446 19.942 42.0533 20.463C41.7661 20.984 41.3251 21.5214 40.7303 22.0752C40.3569 22.4198 39.9816 22.7378 39.6041 23.0291C39.2267 23.3162 38.958 23.5172 38.798 23.6321H42.9148V25.3859Z" fill="#74C208"/>
</svg>
