<svg width="209" height="33" viewBox="0 0 209 33" fill="none" xmlns="http://www.w3.org/2000/svg">
<path d="M16.2916 0.896973L19.8839 11.9527H31.5085L22.104 18.7855L25.6962 29.8412L16.2916 23.0084L6.88706 29.8412L10.4793 18.7855L1.07472 11.9527H12.6994L16.2916 0.896973Z" fill="white"/>
<path d="M60.2916 0.896973L63.8839 11.9527H75.5085L66.104 18.7855L69.6962 29.8412L60.2916 23.0084L50.8871 29.8412L54.4793 18.7855L45.0747 11.9527H56.6994L60.2916 0.896973Z" fill="white"/>
<path d="M104.292 0.896973L107.884 11.9527H119.508L110.104 18.7855L113.696 29.8412L104.292 23.0084L94.8869 29.8412L98.4792 18.7855L89.0746 11.9527H100.699L104.292 0.896973Z" fill="white"/>
<path d="M148.292 0.896973L151.884 11.9527H163.508L154.104 18.7855L157.696 29.8412L148.292 23.0084L138.887 29.8412L142.479 18.7855L133.075 11.9527H144.699L148.292 0.896973Z" fill="white"/>
<path d="M192.292 0.896973L195.884 11.9527H207.508L198.104 18.7855L201.696 29.8412L192.292 23.0084L182.887 29.8412L186.479 18.7855L177.075 11.9527H188.699L192.292 0.896973Z" fill="white"/>
</svg>
