<svg width="164" height="164" viewBox="0 0 164 164" fill="none" xmlns="http://www.w3.org/2000/svg">
<path d="M80.1544 2.64051C80.257 1.71772 81.0772 1 82 1C82.9228 1 83.743 1.71772 83.8456 2.64051L89.4848 52.7272C89.6899 54.5215 90.8177 56.0082 92.4582 56.726C94.0987 57.3924 95.9956 57.1361 97.3797 56.0082L136.803 24.5823C137.521 24.0184 138.597 24.0696 139.264 24.7361C139.93 25.4025 139.982 26.4791 139.418 27.1968L107.992 66.6203C106.864 68.0044 106.608 69.9013 107.274 71.5418C107.941 73.1823 109.478 74.3101 111.273 74.5152L161.36 80.1544C162.282 80.257 163 81.0772 163 82C163 82.9228 162.282 83.743 161.36 83.8456L111.273 89.4848C109.478 89.6899 107.992 90.8177 107.274 92.4582C106.556 94.0987 106.864 95.9956 107.992 97.3797L139.418 136.803C139.982 137.521 139.93 138.597 139.264 139.264C138.597 139.93 137.521 139.982 136.803 139.418L97.3797 107.992C95.9956 106.864 94.0987 106.608 92.4582 107.274C90.8177 107.941 89.6899 109.478 89.4848 111.273L83.8456 161.36C83.743 162.282 82.9228 163 82 163C81.0772 163 80.257 162.282 80.1544 161.36L74.5152 111.273C74.3101 109.478 73.1823 107.992 71.5418 107.274C69.9013 106.608 68.0044 106.864 66.6203 107.992L27.1968 139.418C26.4791 139.982 25.4025 139.93 24.7361 139.264C24.0696 138.597 24.0184 137.521 24.5823 136.803L56.0082 97.3797C57.1361 95.9956 57.3924 94.0987 56.726 92.4582C56.0595 90.8177 54.5215 89.6386 52.7272 89.4848L2.64051 83.8456C1.71772 83.743 1 82.9228 1 82C1 81.0772 1.71772 80.257 2.64051 80.1544L52.7272 74.5152C54.5215 74.3101 56.0082 73.1823 56.726 71.5418C57.3924 69.9013 57.1361 68.0044 56.0082 66.6203L24.5823 27.1968C24.0184 26.4791 24.0696 25.4025 24.7361 24.7361C25.4025 24.0696 26.4791 24.0184 27.1968 24.5823L66.6203 56.0082C68.0044 57.1361 69.9013 57.3924 71.5418 56.726C73.1823 56.0595 74.3614 54.5215 74.5152 52.7272L80.1544 2.64051Z" stroke="#E9E9E7" stroke-linecap="round" stroke-linejoin="round"/>
</svg>
