<svg width="28" height="24" viewBox="0 0 28 24" fill="none" xmlns="http://www.w3.org/2000/svg">
<path fill-rule="evenodd" clip-rule="evenodd" d="M12.8242 5.40765C2.80096 9.5665 0.734131 10.6219 0.734131 11.5793C0.734131 12.5089 1.31446 12.8468 3.71002 13.3133C5.34736 13.632 6.89892 14.1073 7.158 14.3692C7.41765 14.6312 8.17817 16.7176 8.84831 19.0056C10.3521 24.1405 11.3331 24.5485 13.4995 20.9379L15.0592 18.3392L18.0892 20.9448C19.7599 22.3815 21.5648 23.4641 22.1129 23.3581C22.9027 23.2051 23.6069 20.9153 25.5522 12.1768C26.8982 6.13325 27.8724 0.982785 27.7181 0.730681C27.113 -0.254554 24.4681 0.575942 12.8242 5.40765ZM17.0241 10.8502C15.6159 12.5239 13.8052 14.881 12.9998 16.0888L11.5363 18.2841L10.933 15.8929L10.3302 13.5011L14.7437 10.6543C17.1709 9.08895 19.2533 7.80757 19.3707 7.80757C19.4887 7.80757 18.4329 9.17647 17.0241 10.8502Z" fill="white"/>
</svg>
