<svg width="33" height="33" viewBox="0 0 33 33" fill="none" xmlns="http://www.w3.org/2000/svg">
<path fill-rule="evenodd" clip-rule="evenodd" d="M2.26309 2.63809C0.0136719 4.88751 0.0136719 8.50787 0.0136719 15.7487V17.0287C0.0136719 24.2695 0.0136719 27.8898 2.26309 30.1393C4.51251 32.3887 8.13287 32.3887 15.3737 32.3887H16.6537C23.8945 32.3887 27.5148 32.3887 29.7643 30.1393C32.0137 27.8898 32.0137 24.2695 32.0137 17.0287V15.7487C32.0137 8.50787 32.0137 4.88751 29.7643 2.63809C27.5148 0.388672 23.8945 0.388672 16.6537 0.388672H15.3737C8.13287 0.388672 4.51251 0.388672 2.26309 2.63809ZM5.41375 10.1221C5.58709 18.4421 9.74707 23.4421 17.0404 23.4421H17.4538V18.6821C20.1338 18.9487 22.1603 20.9087 22.9737 23.4421H26.7604C25.7204 19.6554 22.9869 17.5621 21.2803 16.7621C22.9869 15.7754 25.3869 13.3754 25.9603 10.1221H22.5202C21.7735 12.7621 19.5605 15.1621 17.4538 15.3887V10.1221H14.0137V19.3487C11.8803 18.8154 9.18707 16.2287 9.06707 10.1221H5.41375Z" fill="white"/>
</svg>
