<svg width="269" height="77" viewBox="0 0 269 77" fill="none" xmlns="http://www.w3.org/2000/svg">
<path d="M10.0282 1.85547H4.02588V54.7627" stroke="#74C208" stroke-miterlimit="10"/>
<path d="M7.02507 37.9492H1.29541V58.242H7.02507V37.9492Z" stroke="#74C208" stroke-miterlimit="10"/>
<path d="M96.6465 74.984V76.5059H173.049V74.984H96.6465Z" stroke="#74C208" stroke-miterlimit="10"/>
<path d="M107.718 75.7446H242.515L265.641 69.6024V27.2229L259.808 25.6736V6.78412L265.641 5.28533V1.85547H122.998L117.268 3.37839" stroke="#74C208" stroke-miterlimit="10"/>
<path d="M4.02588 64.4746H19.8516L50.9579 72.7366V75.744" stroke="#74C208" stroke-miterlimit="10"/>
<path d="M60.1784 1.22266H55.4112V2.48883H60.1784V1.22266Z" fill="#74C208"/>
<path d="M49.8055 1.22266H45.0383V2.48883H49.8055V1.22266Z" stroke="#74C208" stroke-miterlimit="10"/>
<path d="M60.1784 1.22266H55.4112V2.48883H60.1784V1.22266Z" stroke="#74C208" stroke-miterlimit="10"/>
<path d="M70.5512 1.22266H65.7841V2.48883H70.5512V1.22266Z" stroke="#74C208" stroke-miterlimit="10"/>
<path d="M17.274 1.44922L14.217 2.26225M20.9299 1.44922L17.8688 2.26225M24.5817 1.44922L21.5206 2.26225M28.2335 1.44922L25.1724 2.26225M31.8852 1.44922L28.8283 2.26225M35.537 1.44922L32.4801 2.26225M39.1929 1.44922L36.1319 2.26225" stroke="#74C208" stroke-miterlimit="10"/>
<path d="M262.902 11.1379L265.079 11.7161V11.9586L262.902 12.5368L263.009 12.5643L265.186 11.986H266.095L268.272 12.5643L268.38 12.5368L266.203 11.9575V11.7161L268.38 11.1379L268.272 11.1094L266.095 11.6876H265.186L263.009 11.1094L262.902 11.1379Z" fill="#74C208"/>
<path d="M262.902 16.0129L265.079 16.5911V16.8325L262.902 17.4107L263.009 17.4393L265.186 16.861H266.095L268.272 17.4393L268.38 17.4107L266.203 16.8325V16.5911L268.38 16.0129L268.272 15.9844L266.095 16.5626H265.186L263.009 15.9844L262.902 16.0129Z" fill="#74C208"/>
<path d="M262.902 20.8859L265.079 21.4642V21.7067L262.902 22.2849L263.009 22.3134L265.186 21.7352H266.095L268.272 22.3134L268.38 22.2849L266.203 21.7067V21.4642L268.38 20.8859L268.272 20.8574L266.095 21.4356H265.186L263.009 20.8574L262.902 20.8859Z" fill="#74C208"/>
</svg>
