<svg width="27" height="27" viewBox="0 0 27 27" fill="none" xmlns="http://www.w3.org/2000/svg">
<path fill-rule="evenodd" clip-rule="evenodd" d="M12.0759 0.866698C11.6101 0.910974 10.5604 1.09494 10.0671 1.21872C5.44955 2.37752 1.77037 6.05518 0.611899 10.6701C0.380968 11.5901 0.272851 12.3951 0.241525 13.4286C0.157869 16.1876 0.861697 18.6837 2.37905 21.009L2.69048 21.4863L1.88977 23.8758C1.44937 25.19 1.09868 26.2749 1.11043 26.2867C1.12223 26.2984 2.2453 25.9512 3.60612 25.515L6.0804 24.722L6.49726 24.97C8.29746 26.041 9.92379 26.5837 12.0174 26.8119C12.8242 26.8999 14.4524 26.849 15.2797 26.7099C18.0843 26.2385 20.4745 25.0162 22.4468 23.0446C24.13 21.3621 25.3091 19.294 25.8792 17.0243C26.1725 15.8566 26.2349 15.299 26.2349 13.8472C26.2349 12.3953 26.1725 11.8377 25.8792 10.6701C25.3091 8.40028 24.13 6.33217 22.4468 4.64968C20.7636 2.96714 18.6939 1.78816 16.4239 1.21877C15.3776 0.956369 14.7227 0.876763 13.4744 0.860344C12.8311 0.851855 12.2017 0.854752 12.0759 0.866698ZM8.81094 6.82876C9.38489 6.8952 9.33444 6.8185 10.2441 9.00719C10.9203 10.6342 10.9472 10.7514 10.7292 11.1185C10.6599 11.2353 10.407 11.5482 10.1672 11.8138C9.64867 12.3883 9.56339 12.5313 9.60102 12.7633C9.66398 13.1511 10.7674 14.6265 11.5722 15.3992C12.3726 16.1676 13.069 16.6616 14.0118 17.1299C14.8019 17.5223 15.1569 17.6321 15.413 17.5632C15.5239 17.5333 15.6594 17.4672 15.7142 17.4161C15.8489 17.2906 16.2319 16.8087 16.602 16.2991C16.979 15.7801 17.1499 15.6617 17.4725 15.6964C17.7191 15.7229 18.5982 16.1147 20.123 16.8778C20.8148 17.224 20.9892 17.3327 21.0332 17.4447C21.1687 17.79 20.9437 19.0099 20.6533 19.5053C20.4231 19.898 19.8597 20.3696 19.2813 20.6537C18.1677 21.2007 17.3244 21.2441 15.8694 20.8293C15.3281 20.675 14.2329 20.2744 13.5899 19.9957C11.3427 19.0215 9.23787 17.1644 7.34083 14.4826C6.17998 12.8414 5.7202 11.6856 5.71938 10.4065C5.71862 9.20803 6.05121 8.32241 6.80772 7.50861C7.211 7.07475 7.50291 6.90608 7.96446 6.84C8.39058 6.77905 8.38274 6.77915 8.81094 6.82876Z" fill="white"/>
</svg>
