<svg width="16" height="15" viewBox="0 0 16 15" fill="none" xmlns="http://www.w3.org/2000/svg">
<g clip-path="url(#clip0_1_220)">
<path fill-rule="evenodd" clip-rule="evenodd" d="M13.5186 2.12644C12.1123 0.813944 10.2061 0.0847778 8.20605 0.0847778C4.0873 0.0847778 0.706055 3.24061 0.706055 7.08478C0.706055 8.31561 1.1123 9.48228 1.76855 10.5381L0.706055 14.0848L4.6623 13.1806C5.75605 13.7406 6.95605 14.0848 8.20605 14.0848C12.3248 14.0848 15.7061 10.9289 15.7061 7.08478C15.7061 5.22394 14.9311 3.44478 13.5186 2.12644ZM8.20605 12.9181C7.09355 12.9181 6.03105 12.5739 5.0748 12.0489L4.8498 11.9206L2.4998 12.4981L3.1248 10.3573L2.9748 10.1356C2.35605 9.21394 1.95605 8.18144 1.95605 7.08478C1.95605 3.88811 4.78105 1.25144 8.20605 1.25144C9.8623 1.25144 11.4561 1.86394 12.6311 2.96061C13.8061 4.05728 14.4561 5.53894 14.4561 7.08478C14.4561 10.2814 11.6248 12.9181 8.20605 12.9181ZM11.6436 8.51394C11.4561 8.42644 10.5373 8.00644 10.3686 7.94811C10.1998 7.88978 10.0748 7.86061 9.9498 8.03561C9.8248 8.21061 9.46855 8.60144 9.35605 8.71811C9.2498 8.83478 9.1373 8.84644 8.9498 8.75894C8.7623 8.67144 8.1623 8.49061 7.4498 7.89561C6.89355 7.43478 6.51855 6.86311 6.4123 6.68811C6.30605 6.51311 6.3998 6.41978 6.49355 6.33228C6.5748 6.25644 6.68105 6.12811 6.7748 6.02894C6.86855 5.92978 6.8998 5.85394 6.9623 5.73728C7.0248 5.62061 6.99355 5.52144 6.9498 5.43394C6.8998 5.34644 6.5248 4.48894 6.36855 4.13894C6.21855 3.80061 6.0623 3.84728 5.9498 3.84144C5.84355 3.83561 5.71855 3.83561 5.59355 3.83561C5.46855 3.83561 5.26855 3.88228 5.09355 4.05144C4.9248 4.22644 4.44355 4.65228 4.44355 5.50978C4.44355 6.36728 5.1123 7.19561 5.20605 7.31228C5.2998 7.42894 6.5248 9.19061 8.39355 9.94311C8.8373 10.1239 9.1873 10.2289 9.45605 10.3106C9.90605 10.4448 10.3123 10.4273 10.6311 10.3806C10.9873 10.3281 11.7373 9.96061 11.8936 9.55228C12.0498 9.14394 12.0498 8.79394 11.9998 8.72394C11.9561 8.64811 11.8311 8.60144 11.6436 8.51394Z" fill="black"/>
</g>
<defs>
<clipPath id="clip0_1_220">
<rect width="15" height="14" fill="white" transform="translate(0.706055 0.0847778)"/>
</clipPath>
</defs>
</svg>
