<svg width="15" height="15" viewBox="0 0 15 15" fill="none" xmlns="http://www.w3.org/2000/svg">
<g clip-path="url(#clip0_1_209)">
<path d="M14.3022 4.59418C14.3022 4.59418 14.1281 3.72322 13.7797 3.25871C13.2571 2.73613 12.6184 2.79419 12.3861 2.73613C10.47 2.62 7.50873 2.62 7.50873 2.62C7.50873 2.62 4.54745 2.62 2.63133 2.73613C2.39907 2.79419 1.76037 2.79419 1.23779 3.31677C0.831337 3.72322 0.715208 4.65225 0.715208 4.65225C0.715208 4.65225 0.541016 5.75547 0.541016 6.80063V7.78772C0.541016 8.89094 0.715208 9.9361 0.715208 9.9361C0.715208 9.9361 0.889401 10.8071 1.23779 11.2716C1.76037 11.7942 2.45714 11.7361 2.80552 11.7942C3.85068 11.9103 7.50873 11.9103 7.50873 11.9103C7.50873 11.9103 10.47 11.9103 12.3861 11.7942C12.6184 11.7361 13.2571 11.7361 13.7797 11.2135C14.1861 10.8071 14.3022 9.87803 14.3022 9.87803C14.3022 9.87803 14.4764 8.77481 14.4764 7.78772V6.80063C14.4764 5.6974 14.3022 4.59418 14.3022 4.59418ZM5.94099 9.06513V5.17483L9.94743 7.14901L5.94099 9.06513Z" fill="black"/>
</g>
<defs>
<clipPath id="clip0_1_209">
<rect width="13.9354" height="13.9354" fill="white" transform="translate(0.541016 0.297485)"/>
</clipPath>
</defs>
</svg>
